<?xml version="1.0" encoding="UTF-8"?>
<svg version="1.1" xmlns="http://www.w3.org/2000/svg" width="425" height="558">
<path d="M0 0 C0.94864929 0.00087616 1.89729858 0.00175232 2.87469482 0.00265503 C17.97539131 0.0485765 32.38283115 0.83708135 47.125 4.375 C48.66462402 4.73706543 48.66462402 4.73706543 50.23535156 5.10644531 C105.77509003 18.53939088 153.68011359 53.61181754 183.5625 102.3125 C203.57425856 135.92760672 213.60037598 172.85705641 213.4375 211.875 C213.43534485 212.8041925 213.4331897 213.73338501 213.43096924 214.69073486 C213.37851779 228.79350458 212.83799797 242.50044075 210.125 256.375 C209.82698486 257.9518457 209.82698486 257.9518457 209.52294922 259.56054688 C200.03287428 308.95158857 182.60149598 355.52606589 160.125 400.375 C159.609375 401.40882813 159.09375 402.44265625 158.5625 403.5078125 C144.49367765 431.57218209 127.56011228 457.74273633 108.125 482.375 C107.32320313 483.39207031 106.52140625 484.40914063 105.6953125 485.45703125 C91.43015091 503.19964327 75.2453341 520.7603345 56.78125 534.16748047 C55.08634024 535.40318561 53.41803527 536.66972152 51.75 537.94140625 C33.83181992 551.40431031 16.8268456 559.10270558 -5.875 557.375 C-23.67442044 554.80468658 -37.66989019 542.49268182 -50.37890625 530.6875 C-52.59066572 528.63842081 -54.83922276 526.65300519 -57.125 524.6875 C-62.75878872 519.7765803 -67.89049579 514.49584491 -72.7578125 508.828125 C-74.38187341 506.94637176 -76.0224446 505.08652288 -77.6796875 503.234375 C-86.02980026 493.84017146 -93.63114438 483.98746343 -101.05810547 473.85205078 C-102.7701855 471.51789814 -104.49511287 469.19381098 -106.22265625 466.87109375 C-124.07392825 442.70558107 -139.25514065 416.60472236 -153.39990234 390.1328125 C-154.37485345 388.31006379 -155.35427254 386.4896971 -156.33837891 384.671875 C-180.3716819 340.24838072 -200.14509978 292.07438396 -209.875 242.375 C-210.17760742 240.83924316 -210.17760742 240.83924316 -210.48632812 239.27246094 C-212.1370342 229.89985758 -212.2743784 220.61290775 -212.25 211.125 C-212.24912384 210.28973785 -212.24824768 209.45447571 -212.24734497 208.59390259 C-212.0452701 149.95093525 -186.70234377 99.09504048 -146.375 57.6875 C-107.71152319 19.63990159 -53.68554082 -0.12133319 0 0 Z " fill="#000000" transform="translate(211.875,-0.375)"/>
<path d="M0 0 C40.78784606 -1.2994933 78.54851391 12.2074296 108.55761719 39.9453125 C109.67716797 41.00105469 109.67716797 41.00105469 110.81933594 42.078125 C111.49351562 42.69945312 112.16769531 43.32078125 112.86230469 43.9609375 C130.48438107 60.77401636 142.09972459 83.27229524 149.19433594 106.328125 C149.4330542 107.09471436 149.67177246 107.86130371 149.91772461 108.65112305 C160.3970507 144.62951097 153.64786082 185.14634181 135.94433594 217.578125 C131.55694568 225.29234684 126.59685322 232.33874749 120.81933594 239.078125 C120.3580127 239.61775879 119.89668945 240.15739258 119.42138672 240.71337891 C94.03520339 270.03687072 59.31511017 288.01881572 20.63183594 291.765625 C-19.6235251 294.359259 -57.90592279 281.84686245 -88.33691406 255.3515625 C-116.16658721 230.65670605 -135.05457295 195.60558532 -137.43066406 158.13574219 C-139.26716987 115.67385632 -126.99132541 77.69381864 -98.18066406 46.078125 C-97.32988281 45.14355469 -96.47910156 44.20898438 -95.60253906 43.24609375 C-71.09024336 17.59625139 -35.50638874 1.2720605 0 0 Z " fill="#48857D" transform="translate(204.1806640625,53.921875)"/>
<path d="M0 0 C51.48 0 102.96 0 156 0 C156.04125 15.283125 156.0825 30.56625 156.125 46.3125 C156.14320801 51.14044189 156.16141602 55.96838379 156.18017578 60.94262695 C156.18920898 66.83239746 156.18920898 66.83239746 156.19088745 69.58854675 C156.19396116 71.5159243 156.20100052 73.44329797 156.21115112 75.37065125 C156.22574895 78.28794043 156.22781339 81.20499433 156.22705078 84.12231445 C156.234247 84.98277783 156.24144321 85.84324121 156.2488575 86.72977924 C156.22805267 92.65792099 156.22805267 92.65792099 154 96 C151.68493652 96.3742218 151.68493652 96.3742218 148.75585938 96.37231445 C147.11405701 96.38165764 147.11405701 96.38165764 145.43908691 96.39118958 C144.25262573 96.38197983 143.06616455 96.37277008 141.84375 96.36328125 C140.63054077 96.36377975 139.41733154 96.36427826 138.1673584 96.36479187 C135.59837204 96.3624479 133.02938354 96.35270057 130.46044922 96.33618164 C126.51639382 96.31259803 122.57301416 96.31561742 118.62890625 96.32226562 C116.13801678 96.31668898 113.64713017 96.30957918 111.15625 96.30078125 C109.37655823 96.30214836 109.37655823 96.30214836 107.56091309 96.30354309 C105.91911072 96.28924507 105.91911072 96.28924507 104.24414062 96.2746582 C103.27754517 96.27005081 102.31094971 96.26544342 101.31506348 96.26069641 C99 96 99 96 97 94 C96.73498535 91.26733398 96.73498535 91.26733398 96.71289062 87.74609375 C96.69947632 86.43133057 96.68606201 85.11656738 96.67224121 83.76196289 C96.66967819 83.05733917 96.66711517 82.35271545 96.66447449 81.6267395 C96.65620202 79.42472826 96.63571407 77.22313508 96.61193848 75.02124023 C96.55545453 69.55286429 96.52029306 64.08438689 96.48431396 58.61584473 C96.45310825 53.99573811 96.41394462 49.37583371 96.36405945 44.75588989 C96.34394209 42.5832452 96.3356619 40.41075568 96.32775879 38.23803711 C96.31434448 36.92327393 96.30093018 35.60851074 96.28710938 34.25390625 C96.27617249 32.51089233 96.27617249 32.51089233 96.26501465 30.73266602 C96.27805524 27.85435547 96.27805524 27.85435547 94 26 C91.50256138 25.81278148 89.11811317 25.74420233 86.62109375 25.76953125 C85.53019188 25.77021858 85.53019188 25.77021858 84.41725159 25.7709198 C82.87979501 25.77394164 81.34234148 25.78182595 79.80493164 25.79418945 C77.44341265 25.81245427 75.08228539 25.8146991 72.72070312 25.81445312 C71.22916326 25.81936797 69.73762606 25.82519614 68.24609375 25.83203125 C67.53569443 25.83314407 66.8252951 25.8342569 66.09336853 25.83540344 C62.76237095 25.57938617 62.76237095 25.57938617 60 27 C59.88666039 29.0751053 59.84313937 31.1540468 59.82641602 33.23217773 C59.819729 33.8826004 59.81304199 34.53302307 59.80615234 35.20315552 C59.79207328 36.61965985 59.78018838 38.03618725 59.77020454 39.45272636 C59.75384213 41.69237004 59.73060713 43.93184255 59.70530701 46.17140198 C59.63439601 52.54036993 59.57435512 58.90940786 59.52319336 65.27856445 C59.4914504 69.17015747 59.45018668 73.06155469 59.40299797 76.95298958 C59.3869488 78.43895008 59.37464075 79.92495574 59.36609077 81.41097832 C59.35397408 83.48699768 59.32984091 85.56255445 59.30297852 87.63842773 C59.29267105 88.82121811 59.28236359 90.00400848 59.27174377 91.22264099 C59 94 59 94 57 96 C54.68493652 96.25396729 54.68493652 96.25396729 51.75585938 96.25878906 C50.11405701 96.26824554 50.11405701 96.26824554 48.43908691 96.27789307 C47.25262573 96.2738446 46.06616455 96.26979614 44.84375 96.265625 C43.63054077 96.26753845 42.41733154 96.2694519 41.1673584 96.27142334 C38.59838657 96.27278634 36.02940788 96.26908192 33.46044922 96.26074219 C29.51644496 96.2500446 25.57289625 96.26063394 21.62890625 96.2734375 C19.13801982 96.27211593 16.64713368 96.26955358 14.15625 96.265625 C12.37655823 96.27169769 12.37655823 96.27169769 10.56091309 96.27789307 C9.46637817 96.27158875 8.37184326 96.26528442 7.24414062 96.25878906 C6.27754517 96.25719788 5.31094971 96.25560669 4.31506348 96.25396729 C2 96 2 96 0 94 C-0.18835768 91.01684547 -0.25163223 88.12757915 -0.22705078 85.14404297 C-0.22729185 84.21205645 -0.22753292 83.28006992 -0.2277813 82.31984138 C-0.22628487 79.29386067 -0.21103708 76.26812432 -0.1953125 73.2421875 C-0.19237309 71.37768675 -0.19033202 69.51318437 -0.18920898 67.64868164 C-0.17870988 60.72409598 -0.15078762 53.79954561 -0.125 46.875 C-0.08375 31.40625 -0.0425 15.9375 0 0 Z " fill="#000000" transform="translate(134,183)"/>
<path d="M0 0 C3.85943023 2.22766536 7.1297924 4.99528683 10.51953125 7.875 C12.04255295 9.14893476 13.56600049 10.42236058 15.08984375 11.6953125 C16.24468262 12.66452637 16.24468262 12.66452637 17.42285156 13.65332031 C20.88832643 16.54985874 24.38791278 19.40350655 27.89453125 22.25 C28.88187256 23.05280396 28.88187256 23.05280396 29.88916016 23.87182617 C34.18805852 27.35783614 38.52914524 30.78530823 42.89453125 34.1875 C47.98047871 38.15134733 52.92336153 42.25239353 57.82202148 46.44458008 C61.62728636 49.68648446 65.51140646 52.80593227 69.45703125 55.875 C74.73445624 59.98130687 79.92820846 64.1770689 85.08203125 68.4375 C85.79496338 69.0267627 86.50789551 69.61602539 87.24243164 70.22314453 C87.9564917 70.81337402 88.67055176 71.40360352 89.40625 72.01171875 C98.60760145 79.61681135 107.86630938 87.1457292 117.26953125 94.5 C118.40910317 95.39681911 119.54843868 96.29393872 120.6875 97.19140625 C122.4921286 98.60849495 124.30464134 100.01575983 126.1328125 101.40234375 C130.5710711 104.89780593 130.5710711 104.89780593 131.26953125 108.3125 C130.70703125 110.5625 130.70703125 110.5625 128.70703125 112.5625 C124.31577519 113.1057149 119.90889892 113.14755927 115.48852539 113.20776367 C114.02479214 113.23562437 112.56128314 113.28305848 111.09887695 113.35131836 C103.15310825 113.72074196 97.05224521 113.64506136 90.578125 108.36328125 C88.9282614 106.79001127 87.30132022 105.1920616 85.70703125 103.5625 C84.54279236 102.5578368 83.36766438 101.56545724 82.17578125 100.59375 C81.19609375 99.7584375 80.21640625 98.923125 79.20703125 98.0625 C75.261302 94.70713665 71.29058328 91.39025957 67.26953125 88.125 C62.40653701 84.16806582 57.65002922 80.09814058 52.90087891 76.00634766 C48.48671359 72.21086633 44.00369927 68.50972087 39.484375 64.83984375 C36.36306658 62.28045864 33.2825649 59.67652333 30.20703125 57.0625 C25.34349647 52.93049572 20.44288673 48.85145302 15.47265625 44.84765625 C13.4565723 43.18182417 11.50532845 41.49693813 9.56640625 39.74609375 C8.77278687 39.04432007 8.77278687 39.04432007 7.96313477 38.32836914 C6.47541691 37.00922071 5.00285852 35.67303337 3.53125 34.3359375 C0.83055183 32.29531229 0.83055183 32.29531229 -2.35546875 32.5390625 C-5.72520293 33.71309223 -7.43643563 35.07461702 -9.98046875 37.5625 C-13.41037142 40.80838404 -16.8650229 43.91205983 -20.54296875 46.875 C-24.85747965 50.36682874 -29.09002403 53.93830835 -33.29296875 57.5625 C-38.30596481 61.88201465 -43.37834992 66.11347766 -48.515625 70.28515625 C-51.63693142 72.84453972 -54.71750299 75.44839916 -57.79296875 78.0625 C-61.73947356 81.41697127 -65.70938947 84.73471829 -69.73046875 88 C-74.56216958 91.93015898 -79.29506564 95.96542361 -83.99584961 100.05053711 C-85.11904791 101.02168601 -86.2540673 101.97928702 -87.39892578 102.92480469 C-89.37644454 104.58583725 -89.37644454 104.58583725 -91.35498047 106.69238281 C-97.71082274 112.75388601 -103.3790487 113.54564833 -111.8046875 113.36328125 C-113.30078152 113.30469433 -114.79687526 113.2461005 -116.29296875 113.1875 C-117.82026378 113.16447219 -119.34761527 113.1449152 -120.875 113.12890625 C-131.93070578 112.92476297 -131.93070578 112.92476297 -134.29296875 110.5625 C-134.15717334 107.28711461 -133.54750323 105.84891557 -131.359375 103.38671875 C-130.53308594 102.68160156 -129.70679688 101.97648437 -128.85546875 101.25 C-127.94152344 100.46496094 -127.02757813 99.67992187 -126.0859375 98.87109375 C-122.80851541 96.16206375 -119.51495237 93.48026295 -116.17578125 90.84765625 C-112.60335617 88.01585588 -109.07471341 85.1322525 -105.54296875 82.25 C-100.4394285 78.08969424 -95.30058444 73.98276926 -90.10546875 69.9375 C-85.01933646 65.9738986 -80.07662759 61.87259715 -75.17797852 57.68041992 C-70.81343672 53.96203824 -66.33058179 50.41744744 -61.8046875 46.8984375 C-57.06560933 43.20091497 -52.42121165 39.39753775 -47.79296875 35.5625 C-42.0406997 30.7960758 -36.22897048 26.12600875 -30.32910156 21.54394531 C-26.30689446 18.40369937 -22.41331772 15.13726416 -18.54296875 11.8125 C-14.69375012 8.53753189 -10.82552181 5.29827605 -6.79296875 2.25 C-5.66375 1.38955078 -5.66375 1.38955078 -4.51171875 0.51171875 C-2.29296875 -0.4375 -2.29296875 -0.4375 0 0 Z " fill="#000101" transform="translate(213.29296875,62.4375)"/>
<path d="M0 0 C3.56394955 1.25908875 5.84010012 3.47721286 8.48828125 6.0703125 C9.55931866 7.08524485 10.63093261 8.09956912 11.703125 9.11328125 C12.2172998 9.60489746 12.73147461 10.09651367 13.26123047 10.60302734 C17.31256335 14.44738844 21.60301451 18.03415808 25.85546875 21.65234375 C32.69697832 27.4798031 39.41830233 33.40187981 46.01953125 39.5 C52.91588325 45.84870051 60.08992669 51.88670163 67.2109375 57.98046875 C68.05422607 58.70387451 68.05422607 58.70387451 68.91455078 59.44189453 C70.16080519 60.50571968 71.41231919 61.56339766 72.66748047 62.61669922 C73.30830566 63.15697754 73.94913086 63.69725586 74.609375 64.25390625 C75.1964624 64.74560303 75.7835498 65.2372998 76.38842773 65.74389648 C76.81325439 66.14036377 77.23808105 66.53683105 77.67578125 66.9453125 C77.67578125 67.2753125 77.67578125 67.6053125 77.67578125 67.9453125 C26.19578125 67.9453125 -25.28421875 67.9453125 -78.32421875 67.9453125 C-72.70572917 61.203125 -72.70572917 61.203125 -69.88671875 58.8203125 C-68.85998047 57.94246094 -68.85998047 57.94246094 -67.8125 57.046875 C-66.99136719 56.35335937 -66.17023438 55.65984375 -65.32421875 54.9453125 C-63.07121588 53.03215604 -60.82186231 51.11476167 -58.57421875 49.1953125 C-57.97343506 48.68250732 -57.37265137 48.16970215 -56.75366211 47.64135742 C-51.72722835 43.33193064 -46.8432151 38.88276003 -41.98046875 34.390625 C-37.46123028 30.23026723 -32.82243266 26.21845715 -28.14453125 22.23828125 C-26.95418332 21.22424441 -25.76408673 20.20991246 -24.57421875 19.1953125 C-23.97649658 18.68572998 -23.37877441 18.17614746 -22.76293945 17.65112305 C-17.64262168 13.2639495 -12.67804902 8.72629069 -7.75 4.125 C-3.07865662 -0.07243898 -3.07865662 -0.07243898 0 0 Z " fill="#010101" transform="translate(212.32421875,108.0546875)"/>
</svg>
