<svg width="102" height="134" viewBox="0 0 102 134" fill="none" xmlns="http://www.w3.org/2000/svg">
<path fill-rule="evenodd" clip-rule="evenodd" d="M64.375 26.375C63.2359 26.375 62.3125 27.2984 62.3125 28.4375V69.1719H60.25V28.4375C60.25 26.1594 62.0969 24.3125 64.375 24.3125C66.6531 24.3125 68.5 26.1594 68.5 28.4375V69.1719H66.4375V28.4375C66.4375 27.2984 65.5141 26.375 64.375 26.375Z" fill="black"/>
<path fill-rule="evenodd" clip-rule="evenodd" d="M35.5 28.4375C35.5 27.2984 36.4234 26.375 37.5625 26.375C38.7016 26.375 39.625 27.2984 39.625 28.4375V69.1719H41.6875V31.5312H60.7656V29.4688H41.6875V28.4375C41.6875 26.1594 39.8406 24.3125 37.5625 24.3125C35.2844 24.3125 33.4375 26.1594 33.4375 28.4375V69.1719H35.5V28.4375ZM41.6875 29.4688H40.6562V31.5312H41.6875V29.4688Z" fill="black"/>
<path d="M40.6562 29.4688V31.5312H41.6875V29.4688H40.6562Z" fill="black"/>
<path fill-rule="evenodd" clip-rule="evenodd" d="M58.2591 131.959C82.9873 118.275 102 73.8126 102 51C102 22.8335 79.1665 0 51 0C22.8335 0 0 22.8335 0 51C5.49795e-05 71.2676 22.7196 116.689 44.0387 131.35C48.2703 134.26 53.7655 134.445 58.2591 131.959ZM51.0001 83C70.33 83 86.0001 67.33 86.0001 48C86.0001 28.67 70.33 13 51.0001 13C31.6701 13 16.0001 28.67 16.0001 48C16.0001 67.33 31.6701 83 51.0001 83Z" fill="black"/>
</svg>
