<svg width="102" height="134" viewBox="0 0 102 134" fill="none" xmlns="http://www.w3.org/2000/svg">
<path fill-rule="evenodd" clip-rule="evenodd" d="M51.4829 26.2495C51.1048 25.9158 50.5374 25.9158 50.1593 26.2495L49.1219 27.1653L34.1123 40.4156L32.1304 42.1653H34.7741H66.868H69.5118L67.5308 40.4165C67.5305 40.4162 67.5302 40.4159 67.5298 40.4156L52.5202 27.1653L51.4829 26.2495Z" fill="black"/>
<path fill-rule="evenodd" clip-rule="evenodd" d="M50.1968 15.2233C50.564 14.9256 51.0895 14.9256 51.4566 15.2233L53.8853 17.1931L82.2805 40.2233C83.0099 40.8148 82.5982 41.9999 81.6592 41.9999L81.6506 41.9999H74.817C74.5823 41.9999 74.355 41.9174 74.1751 41.7667L72.3582 40.2458L52.9761 24.0208L51.4687 22.7589C51.0972 22.448 50.5563 22.448 50.1849 22.7589L48.6775 24.0208L29.2953 40.2458L27.4785 41.7667C27.2985 41.9174 27.0713 41.9999 26.8366 41.9999H20.0028L19.9943 41.9999C19.0552 41.9999 18.6435 40.8148 19.3729 40.2233L47.7681 17.1931L50.1968 15.2233Z" fill="black"/>
<path fill-rule="evenodd" clip-rule="evenodd" d="M69.5118 44.0054H32.1304V46.0054V66.0054C32.1304 66.5577 32.5781 67.0054 33.1304 67.0054H45.2747C45.827 67.0054 46.2747 66.5577 46.2747 66.0054V51.0054C46.2747 50.4531 46.7224 50.0054 47.2747 50.0054H54.3675C54.9198 50.0054 55.3675 50.4531 55.3675 51.0054V66.0054C55.3675 66.5577 55.8152 67.0054 56.3675 67.0054H68.5118C69.0641 67.0054 69.5118 66.5577 69.5118 66.0054L69.5118 46.0054C69.5118 46.0045 69.5118 46.0035 69.5118 46.0026V44.0054Z" fill="black"/>
<path fill-rule="evenodd" clip-rule="evenodd" d="M58.2669 131.975C82.9914 118.425 102 74.7226 102 51C102 22.8335 79.1665 0 51 0C22.8335 0 0 22.8335 0 51C0 70.8189 22.7234 116.607 44.0441 131.34C48.2692 134.26 53.7633 134.444 58.2669 131.975ZM51.0001 83C70.33 83 86.0001 67.33 86.0001 48C86.0001 28.67 70.33 13 51.0001 13C31.6701 13 16.0001 28.67 16.0001 48C16.0001 67.33 31.6701 83 51.0001 83Z" fill="black"/>
</svg>
