<?xml version="1.0" encoding="UTF-8"?>
<svg version="1.1" xmlns="http://www.w3.org/2000/svg" width="425" height="558">
<path d="M0 0 C0.94864929 0.00087616 1.89729858 0.00175232 2.87469482 0.00265503 C17.97539131 0.0485765 32.38283115 0.83708135 47.125 4.375 C48.66462402 4.73706543 48.66462402 4.73706543 50.23535156 5.10644531 C105.77509003 18.53939088 153.68011359 53.61181754 183.5625 102.3125 C203.50976553 135.81927341 213.58666403 172.72204333 213.5 211.625 C213.49918427 213.00862228 213.49918427 213.00862228 213.49835205 214.42019653 C213.45607773 230.07978922 212.26512524 244.99921435 209.125 260.375 C208.81151611 261.98906738 208.81151611 261.98906738 208.49169922 263.63574219 C197.19402326 321.2665836 173.93337701 377.94207327 144.125 428.375 C143.55104492 429.34985352 142.97708984 430.32470703 142.38574219 431.32910156 C134.84340463 444.08568906 126.95830363 456.47295601 118.125 468.375 C117.33826904 469.43775146 117.33826904 469.43775146 116.53564453 470.52197266 C92.75548615 502.48839163 56.50964898 549.30889659 14.890625 557.09375 C-7.21083375 559.34135597 -23.01328192 553.70111116 -40.17919922 539.76220703 C-41.01862061 539.07553955 -41.01862061 539.07553955 -41.875 538.375 C-42.43590332 537.91851074 -42.99680664 537.46202148 -43.57470703 536.99169922 C-55.95741056 526.84304326 -67.61155815 515.67707072 -77.875 503.375 C-78.66648438 502.46105469 -79.45796875 501.54710937 -80.2734375 500.60546875 C-97.06756038 481.15980396 -112.29949755 460.18018997 -125.875 438.375 C-126.50954102 437.35615723 -127.14408203 436.33731445 -127.79785156 435.28759766 C-137.21215935 420.10785313 -146.16846732 404.76725312 -154.50390625 388.96142578 C-155.72382731 386.66017157 -156.96433876 384.37241645 -158.21875 382.08984375 C-180.97859299 340.45772442 -198.56243683 294.65338108 -208.875 248.375 C-209.06707031 247.56756348 -209.25914062 246.76012695 -209.45703125 245.92822266 C-220.9339642 196.81176819 -206.38117531 141.12908776 -180.45458984 99.07080078 C-148.39204717 49.28569041 -99.01892504 15.99942596 -41.4140625 3.41796875 C-27.55019555 0.68848016 -14.08681854 -0.03183723 0 0 Z " fill="#000000" transform="translate(211.875,-0.375)"/>
<path d="M0 0 C40.78784606 -1.2994933 78.54851391 12.2074296 108.55761719 39.9453125 C109.67716797 41.00105469 109.67716797 41.00105469 110.81933594 42.078125 C111.49351562 42.69945312 112.16769531 43.32078125 112.86230469 43.9609375 C130.48438107 60.77401636 142.09972459 83.27229524 149.19433594 106.328125 C149.4330542 107.09471436 149.67177246 107.86130371 149.91772461 108.65112305 C160.3970507 144.62951097 153.64786082 185.14634181 135.94433594 217.578125 C131.55694568 225.29234684 126.59685322 232.33874749 120.81933594 239.078125 C120.3580127 239.61775879 119.89668945 240.15739258 119.42138672 240.71337891 C94.03520339 270.03687072 59.31511017 288.01881572 20.63183594 291.765625 C-19.6235251 294.359259 -57.90592279 281.84686245 -88.33691406 255.3515625 C-116.16658721 230.65670605 -135.05457295 195.60558532 -137.43066406 158.13574219 C-139.26716987 115.67385632 -126.99132541 77.69381864 -98.18066406 46.078125 C-97.32988281 45.14355469 -96.47910156 44.20898438 -95.60253906 43.24609375 C-71.09024336 17.59625139 -35.50638874 1.2720605 0 0 Z " fill="#48857D" transform="translate(204.1806640625,53.921875)"/>
<path d="M0 0 C4.09932217 2.75074341 6.48250692 6.50730346 7.79296875 11.203125 C7.79296875 13.843125 7.79296875 16.483125 7.79296875 19.203125 C33.20296875 19.203125 58.61296875 19.203125 84.79296875 19.203125 C84.79296875 16.233125 84.79296875 13.263125 84.79296875 10.203125 C86.86202029 4.225865 90.73820018 1.06992802 96.04296875 -2.171875 C101.07432523 -3.31536511 106.1766504 -3.0149003 110.890625 -0.8203125 C115.04111873 1.91143496 116.82182706 4.57665869 118.79296875 9.203125 C119.16211224 12.67445183 119.16211224 12.67445183 119.1537323 16.56832886 C119.15629557 17.28807707 119.15885885 18.00782528 119.1614998 18.74938405 C119.16642208 21.14939763 119.1499711 23.54877531 119.13354492 25.94873047 C119.13269831 27.67373134 119.13317446 29.39873328 119.13487244 31.12373352 C119.13573249 35.79894396 119.1181051 40.47392307 119.09715056 45.1490798 C119.07838544 50.03777993 119.07663345 54.92648548 119.07307434 59.81521606 C119.06375341 69.0692596 119.03913893 78.3231967 119.00902587 87.57719338 C118.97548341 98.11399733 118.95899623 108.65080639 118.94393957 119.18765044 C118.91258945 140.85953468 118.85982795 162.53132313 118.79296875 184.203125 C116.15296875 184.203125 113.51296875 184.203125 110.79296875 184.203125 C110.79242398 183.32129201 110.79187922 182.43945902 110.79131794 181.53090382 C110.77635587 160.08187456 110.7339323 138.63305329 110.66087818 117.18414021 C110.62621324 106.81161964 110.60087068 96.43923218 110.59741211 86.06665039 C110.59437431 77.02673601 110.57390865 67.98705859 110.53244418 58.94723576 C110.51109575 54.15988552 110.49852302 49.37287231 110.50681496 44.58547401 C110.51434345 40.07995028 110.49858159 35.5751101 110.4649086 31.06971169 C110.45666077 29.41573603 110.45694254 27.76169258 110.46637154 26.10772324 C110.47797356 23.84906885 110.45891051 21.59266225 110.4322052 19.33418274 C110.42943982 18.07040456 110.42667444 16.80662638 110.42382526 15.50455189 C109.621808 11.30739883 108.10863077 9.816016 104.79296875 7.203125 C101.74988584 6.45297305 101.74988584 6.45297305 98.79296875 7.203125 C95.7666888 9.4464435 94.88313157 10.63602219 94.28516006 14.39712143 C94.27962931 16.30523291 94.27962931 16.30523291 94.27398682 18.25189209 C94.26648556 18.96176435 94.25898431 19.67163661 94.25125575 20.40302014 C94.23095577 22.78167222 94.23908524 25.15937315 94.24707031 27.53808594 C94.23833651 29.24309737 94.2278514 30.94810061 94.21574402 32.65309143 C94.18783967 37.28293719 94.18448031 41.91251609 94.18546391 46.54243374 C94.18233861 51.38050274 94.15672841 56.21845088 94.13348389 61.05645752 C94.09289095 70.21843343 94.07257544 79.38033811 94.05950999 88.54239011 C94.0436511 98.97281999 94.00524017 109.40312846 93.96491671 119.83348799 C93.88247269 141.28999364 93.82840871 162.74649363 93.79296875 184.203125 C90.82296875 184.203125 87.85296875 184.203125 84.79296875 184.203125 C84.79296875 132.393125 84.79296875 80.583125 84.79296875 27.203125 C59.38296875 27.203125 33.97296875 27.203125 7.79296875 27.203125 C7.79296875 79.013125 7.79296875 130.823125 7.79296875 184.203125 C4.82296875 184.203125 1.85296875 184.203125 -1.20703125 184.203125 C-1.20849781 183.31521648 -1.20996437 182.42730797 -1.21147537 181.51249313 C-1.24850396 159.92195924 -1.30746612 138.33158283 -1.39093399 116.74117661 C-1.43076759 106.30026741 -1.4631381 95.85943405 -1.47802734 85.41845703 C-1.49102149 76.3196113 -1.51792876 67.22093215 -1.56164432 58.12218022 C-1.58430958 53.30305084 -1.59993891 48.4841273 -1.5989151 43.66493988 C-1.59817147 39.13077047 -1.61600215 34.59705695 -1.64819908 30.06300545 C-1.65673143 28.39732249 -1.65842549 26.7315886 -1.65283394 25.06589317 C-1.64622225 22.79402282 -1.66404392 20.52361509 -1.68804932 18.25189209 C-1.69173649 16.97981777 -1.69542366 15.70774345 -1.69922256 14.39712143 C-2.29858044 10.62730225 -3.14954145 9.42767103 -6.20703125 7.203125 C-10.05562944 6.65332526 -12.19901014 6.46971638 -15.39334488 8.79382706 C-17.85402369 12.06258867 -17.71421006 14.17981494 -17.72601318 18.25189209 C-17.73726506 19.31670048 -17.73726506 19.31670048 -17.74874425 20.40302014 C-17.76904423 22.78167222 -17.76091476 25.15937315 -17.75292969 27.53808594 C-17.76166349 29.24309737 -17.7721486 30.94810061 -17.78425598 32.65309143 C-17.81216033 37.28293719 -17.81551969 41.91251609 -17.81453609 46.54243374 C-17.81766139 51.38050274 -17.84327159 56.21845088 -17.86651611 61.05645752 C-17.90710905 70.21843343 -17.92742456 79.38033811 -17.94049001 88.54239011 C-17.9563489 98.97281999 -17.99475983 109.40312846 -18.03508329 119.83348799 C-18.11752731 141.28999364 -18.17159129 162.74649363 -18.20703125 184.203125 C-21.17703125 184.203125 -24.14703125 184.203125 -27.20703125 184.203125 C-27.30051432 161.78493285 -27.37102999 139.36677288 -27.41427994 116.94842529 C-27.43489631 106.53895549 -27.4629993 96.12960686 -27.50878906 85.72021484 C-27.54868505 76.64632046 -27.57447079 67.57251386 -27.58338523 58.4985342 C-27.58859528 53.69486563 -27.60082163 48.89144813 -27.62995148 44.08786011 C-27.65716418 39.56362556 -27.66546442 35.03974479 -27.65946198 30.51543617 C-27.6605596 28.8578429 -27.66847863 27.20023741 -27.68385315 25.54271507 C-27.82147478 9.93616287 -27.82147478 9.93616287 -23.20703125 3.203125 C-16.24761174 -3.57784785 -8.49300932 -4.66540551 0 0 Z " fill="#010302" transform="translate(166.20703125,103.796875)"/>
</svg>
