<?xml version="1.0" encoding="UTF-8"?>
<svg version="1.1" xmlns="http://www.w3.org/2000/svg" width="425" height="558">
<path d="M0 0 C0.94864929 0.00087616 1.89729858 0.00175232 2.87469482 0.00265503 C17.97539131 0.0485765 32.38283115 0.83708135 47.125 4.375 C48.66462402 4.73706543 48.66462402 4.73706543 50.23535156 5.10644531 C105.77509003 18.53939088 153.68011359 53.61181754 183.5625 102.3125 C203.50976553 135.81927341 213.58666403 172.72204333 213.5 211.625 C213.49918427 213.00862228 213.49918427 213.00862228 213.49835205 214.42019653 C213.45607773 230.07978922 212.26512524 244.99921435 209.125 260.375 C208.81151611 261.98906738 208.81151611 261.98906738 208.49169922 263.63574219 C197.19402326 321.2665836 173.93337701 377.94207327 144.125 428.375 C143.55104492 429.34985352 142.97708984 430.32470703 142.38574219 431.32910156 C134.84340463 444.08568906 126.95830363 456.47295601 118.125 468.375 C117.33826904 469.43775146 117.33826904 469.43775146 116.53564453 470.52197266 C92.75548615 502.48839163 56.50964898 549.30889659 14.890625 557.09375 C-7.21083375 559.34135597 -23.01328192 553.70111116 -40.17919922 539.76220703 C-41.01862061 539.07553955 -41.01862061 539.07553955 -41.875 538.375 C-42.43590332 537.91851074 -42.99680664 537.46202148 -43.57470703 536.99169922 C-55.95741056 526.84304326 -67.61155815 515.67707072 -77.875 503.375 C-78.66648438 502.46105469 -79.45796875 501.54710937 -80.2734375 500.60546875 C-97.06756038 481.15980396 -112.29949755 460.18018997 -125.875 438.375 C-126.50954102 437.35615723 -127.14408203 436.33731445 -127.79785156 435.28759766 C-137.21215935 420.10785313 -146.16846732 404.76725312 -154.50390625 388.96142578 C-155.72382731 386.66017157 -156.96433876 384.37241645 -158.21875 382.08984375 C-180.97859299 340.45772442 -198.56243683 294.65338108 -208.875 248.375 C-209.06707031 247.56756348 -209.25914062 246.76012695 -209.45703125 245.92822266 C-220.9339642 196.81176819 -206.38117531 141.12908776 -180.45458984 99.07080078 C-148.39204717 49.28569041 -99.01892504 15.99942596 -41.4140625 3.41796875 C-27.55019555 0.68848016 -14.08681854 -0.03183723 0 0 Z " fill="#000000" transform="translate(211.875,-0.375)"/>
<path d="M0 0 C40.78784606 -1.2994933 78.54851391 12.2074296 108.55761719 39.9453125 C109.67716797 41.00105469 109.67716797 41.00105469 110.81933594 42.078125 C111.49351562 42.69945312 112.16769531 43.32078125 112.86230469 43.9609375 C130.48438107 60.77401636 142.09972459 83.27229524 149.19433594 106.328125 C149.4330542 107.09471436 149.67177246 107.86130371 149.91772461 108.65112305 C160.3970507 144.62951097 153.64786082 185.14634181 135.94433594 217.578125 C131.55694568 225.29234684 126.59685322 232.33874749 120.81933594 239.078125 C120.3580127 239.61775879 119.89668945 240.15739258 119.42138672 240.71337891 C94.03520339 270.03687072 59.31511017 288.01881572 20.63183594 291.765625 C-19.6235251 294.359259 -57.90592279 281.84686245 -88.33691406 255.3515625 C-116.16658721 230.65670605 -135.05457295 195.60558532 -137.43066406 158.13574219 C-139.26716987 115.67385632 -126.99132541 77.69381864 -98.18066406 46.078125 C-97.32988281 45.14355469 -96.47910156 44.20898438 -95.60253906 43.24609375 C-71.09024336 17.59625139 -35.50638874 1.2720605 0 0 Z " fill="#48857D" transform="translate(204.1806640625,53.921875)"/>
<path d="M0 0 C2.9186428 2.67672321 5.86852994 5.86935424 6.12025452 9.94888306 C6.11803391 10.743862 6.11581329 11.53884094 6.11352539 12.35791016 C6.11344986 13.25869293 6.11337433 14.15947571 6.11329651 15.08755493 C6.10813522 16.06155243 6.10297394 17.03554993 6.09765625 18.0390625 C6.0962413 19.03505463 6.09482635 20.03104675 6.09336853 21.05722046 C6.08775936 24.24651053 6.0752053 27.43573106 6.0625 30.625 C6.05748618 32.78385315 6.05292307 34.94270741 6.04882812 37.1015625 C6.03778695 42.4010655 6.02103988 47.70052778 6 53 C6.66 53 7.32 53 8 53 C8.144375 52.030625 8.28875 51.06125 8.4375 50.0625 C9 47 9 47 10 46 C12.65822657 45.87341778 15.27887424 45.81479786 17.9375 45.8125 C18.67935547 45.80025391 19.42121094 45.78800781 20.18554688 45.77539062 C22.12513629 45.77011522 24.0642371 45.87811098 26 46 C28 48 28 48 28 53 C59.02 53 90.04 53 122 53 C122 51.02 122 49.04 122 47 C124 45 124 45 127.4765625 44.8046875 C128.85950968 44.81798507 130.24238654 44.84183768 131.625 44.875 C132.33140625 44.88402344 133.0378125 44.89304688 133.765625 44.90234375 C135.51056098 44.92592397 137.25532295 44.96179539 139 45 C139.99 46.98 139.99 46.98 141 49 C141.66 49 142.32 49 143 49 C142.97905273 47.75911621 142.95810547 46.51823242 142.93652344 45.23974609 C142.8639463 40.62170011 142.81813579 36.00370423 142.78027344 31.38525391 C142.76019831 29.38907382 142.73293211 27.39295225 142.69824219 25.39697266 C142.64954343 22.5223138 142.62699014 19.6484346 142.609375 16.7734375 C142.58872986 15.88570648 142.56808472 14.99797546 142.54681396 14.08334351 C142.54477091 8.40018169 143.30701167 5.37454544 147 1 C149.52895899 -0.93886856 150.72955988 -1.00575405 153.9375 -0.9375 C157.77821833 0.2382301 159.45014742 1.9401769 162 5 C162.33 5.99 162.66 6.98 163 8 C163.515625 7.484375 164.03125 6.96875 164.5625 6.4375 C167 5 167 5 170.4375 4.8125 C174.9655986 6.3218662 175.93483097 8.22803479 178.15234375 12.28515625 C178.43207031 12.85105469 178.71179688 13.41695312 179 14 C179.66 13.34 180.32 12.68 181 12 C183.82302844 12.21715603 185.51085783 12.61567401 187.75 14.375 C190.61665762 18.10165491 190.12925396 22.27223247 190.09765625 26.73046875 C190.09553383 27.85609978 190.09553383 27.85609978 190.09336853 29.00447083 C190.0877756 31.3988546 190.07522444 33.79314453 190.0625 36.1875 C190.05748408 37.81184761 190.05292134 39.43619668 190.04882812 41.06054688 C190.03780848 45.04040069 190.02054873 49.02018444 190 53 C190.98742187 52.97679687 191.97484375 52.95359375 192.9921875 52.9296875 C194.27351562 52.91164062 195.55484375 52.89359375 196.875 52.875 C198.15117187 52.85179687 199.42734375 52.82859375 200.7421875 52.8046875 C204 53 204 53 206 55 C206.33333333 60.33333333 206.33333333 60.33333333 205 63 C200.05 63 195.1 63 190 63 C190.03480469 65.22878906 190.06960938 67.45757812 190.10546875 69.75390625 C190.1289186 71.931709 190.14710412 74.10949725 190.16479492 76.28735352 C190.17980722 77.79165017 190.20022353 79.29590361 190.22631836 80.80004883 C190.26303816 82.97227696 190.27980161 85.14392251 190.29296875 87.31640625 C190.31653442 89.27235718 190.31653442 89.27235718 190.34057617 91.26782227 C189.94439902 95.60929908 189.07113571 98.18443187 187 102 C183.78726088 103.04905767 182.0625954 103.5312977 179 102 C178.74605469 102.62648438 178.49210938 103.25296875 178.23046875 103.8984375 C177.71419922 105.12433594 177.71419922 105.12433594 177.1875 106.375 C176.85105469 107.18710938 176.51460937 107.99921875 176.16796875 108.8359375 C175 111 175 111 172 113 C168.4375 112.625 168.4375 112.625 165 112 C164.34 112 163.68 112 163 112 C161.6273318 113.97321053 160.29572383 115.97543152 159 118 C157 120 157 120 153.1875 120.4375 C149.59882053 120.36572641 149.04975916 120.04023081 146.0625 117.625 C143.38305472 114.21479691 142.87513743 112.69860126 142.88647461 108.45849609 C142.88655014 107.51767181 142.88662567 106.57684753 142.88670349 105.60751343 C142.89186478 104.58976837 142.89702606 103.57202332 142.90234375 102.5234375 C142.90446617 100.96286118 142.90446617 100.96286118 142.90663147 99.37075806 C142.91224134 96.03880979 142.92479553 92.70692805 142.9375 89.375 C142.94251373 87.11979264 142.94707686 84.86458422 142.95117188 82.609375 C142.96221397 77.07289386 142.97896173 71.53645168 143 66 C142.34 66 141.68 66 141 66 C140.67 66.99 140.34 67.98 140 69 C139.34 69 138.68 69 138 69 C138.00138269 69.8484176 138.00138269 69.8484176 138.00279331 70.71397495 C138.0249046 84.49435413 138.04137499 98.27473019 138.05181217 112.05512333 C138.05702933 118.71929225 138.06410585 125.38344588 138.07543945 132.04760742 C138.08630973 138.47962507 138.09228564 144.91163041 138.09487724 151.34365654 C138.09672402 153.79682039 138.10033027 156.24998357 138.10573006 158.70314217 C138.11299537 162.14073261 138.11398861 165.57827224 138.11352539 169.01586914 C138.11712067 170.02863419 138.12071594 171.04139923 138.12442017 172.08485413 C138.11701523 177.16772962 137.87756427 181.99087736 137 187 C133.37 187 129.74 187 126 187 C125.99413376 185.53865631 125.98826752 184.07731262 125.98222351 182.57168579 C125.92511192 168.8273231 125.85259022 155.08310238 125.76428509 141.33890724 C125.71927995 134.27217726 125.67987637 127.20549821 125.65356445 120.13867188 C125.62817579 113.32400581 125.58730327 106.509575 125.53681374 99.69504929 C125.52007602 97.08985571 125.50860497 94.48462301 125.50238609 91.87938309 C125.49281998 88.24177382 125.46485057 84.6047516 125.43237305 80.96728516 C125.43380814 79.8804393 125.43524323 78.79359344 125.4367218 77.67381287 C125.42418365 76.68660751 125.41164551 75.69940216 125.39872742 74.68228149 C125.39181397 73.39084952 125.39181397 73.39084952 125.38476086 72.07332802 C125.25778977 71.38912977 125.13081869 70.70493153 125 70 C124.01 69.34 123.02 68.68 122 68 C121.67 66.68 121.34 65.36 121 64 C90.31 63.67 59.62 63.34 28 63 C28 64.65 28 66.3 28 68 C26.02 68.99 26.02 68.99 24 70 C24 108.61 24 147.22 24 187 C20.04 187 16.08 187 12 187 C12 148.39 12 109.78 12 70 C10.02 69.01 10.02 69.01 8 68 C8 66.35 8 64.7 8 63 C7.34 63 6.68 63 6 63 C6.00888245 63.60055206 6.01776489 64.20110413 6.0269165 64.81985474 C6.11554711 71.08162906 6.17579949 77.34322461 6.21972656 83.60546875 C6.23981709 85.94115438 6.26709461 88.27678987 6.30175781 90.61230469 C6.35038691 93.97343331 6.37299492 97.33389575 6.390625 100.6953125 C6.41127014 101.73615997 6.43191528 102.77700745 6.45318604 103.84939575 C6.45504829 109.89348088 6.08765624 113.42976042 2 118 C-1.75047482 120.50031654 -3.55856266 120.53603554 -8 120 C-11.16384761 117.59272465 -12.70458888 116.02257696 -13.8125 112.1875 C-13.874375 111.465625 -13.93625 110.74375 -14 110 C-14.53625 110.495 -15.0725 110.99 -15.625 111.5 C-18.70110743 113.44280469 -20.41889189 113.52224493 -24 113 C-26.62419798 111.29781752 -27.76637133 110.02875145 -28.46484375 106.953125 C-28.72058899 104.9772303 -28.86746906 102.98796405 -29 101 C-30.485 101.99 -30.485 101.99 -32 103 C-34.4375 103.4375 -34.4375 103.4375 -37 103 C-40.06888508 100.09985449 -40.94575019 98.45164428 -41.45410156 94.21948242 C-41.45347396 92.76465746 -41.43120943 91.30972766 -41.390625 89.85546875 C-41.38496521 89.08568192 -41.37930542 88.31589508 -41.37347412 87.52278137 C-41.35117872 85.07704057 -41.30099875 82.6327939 -41.25 80.1875 C-41.229926 78.52410978 -41.2116768 76.86069647 -41.1953125 75.19726562 C-41.15133684 71.13093942 -41.08235979 67.06572256 -41 63 C-42.60681641 63.01740234 -42.60681641 63.01740234 -44.24609375 63.03515625 C-45.64322743 63.04453299 -47.04036299 63.05363331 -48.4375 63.0625 C-49.14455078 63.07087891 -49.85160156 63.07925781 -50.58007812 63.08789062 C-52.38693559 63.09653588 -54.19387603 63.05220011 -56 63 C-57 62 -57 62 -57.1875 58.5625 C-57 55 -57 55 -55 53 C-51.7421875 52.8046875 -51.7421875 52.8046875 -47.875 52.875 C-45.95300781 52.90207031 -45.95300781 52.90207031 -43.9921875 52.9296875 C-43.00476563 52.95289063 -42.01734375 52.97609375 -41 53 C-41.02356567 51.44889526 -41.02356567 51.44889526 -41.04760742 49.86645508 C-41.10204054 46.01806473 -41.13639849 42.16970821 -41.16479492 38.32104492 C-41.17985114 36.65757519 -41.20030063 34.99414495 -41.22631836 33.33081055 C-41.26284207 30.93528478 -41.27975782 28.54028533 -41.29296875 26.14453125 C-41.30845261 25.4047554 -41.32393646 24.66497955 -41.33988953 23.90278625 C-41.34133545 19.43376111 -40.8573695 16.50030891 -38 13 C-34.9375 12.0625 -34.9375 12.0625 -32 12 C-31.34 12.66 -30.68 13.32 -30 14 C-29.70867187 13.43410156 -29.41734375 12.86820313 -29.1171875 12.28515625 C-25.77183021 6.2992811 -25.77183021 6.2992811 -21.9375 4.8125 C-18.6129531 5.02470512 -17.37064471 5.72053393 -15 8 C-14.52820313 7.27683594 -14.52820313 7.27683594 -14.046875 6.5390625 C-10.10567522 0.7222315 -7.40386474 -2.41758849 0 0 Z " fill="#000000" transform="translate(136,113)"/>
<path d="M0 0 C0.87333984 -0.020625 1.74667969 -0.04125 2.64648438 -0.0625 C13.83214991 -0.12932997 13.83214991 -0.12932997 18.3125 3.25 C23.24901895 10.35494746 23.30068987 19.66138708 23.9375 28 C24.05532619 29.39462209 24.17424121 30.78915257 24.29418945 32.18359375 C25.50361981 46.52367541 26.41486816 60.88789057 27.3125 75.25 C8.5025 75.25 -10.3075 75.25 -29.6875 75.25 C-28.924375 67.969375 -28.16125 60.68875 -27.375 53.1875 C-27.14127686 50.92253662 -26.90755371 48.65757324 -26.66674805 46.32397461 C-22.78670935 9.51585203 -22.78670935 9.51585203 -14.71484375 2.546875 C-10.06508083 -0.42753982 -5.32142641 0.03073748 0 0 Z " fill="#000000" transform="translate(212.6875,224.75)"/>
</svg>
