<svg width="102" height="134" viewBox="0 0 102 134" fill="none" xmlns="http://www.w3.org/2000/svg">
<path fill-rule="evenodd" clip-rule="evenodd" d="M31.0734 27.0813C30.2563 27.3244 29.5279 28.1723 29.2818 29.1803L29.2227 29.4293L28.952 29.1032C28.642 28.7296 28.2925 28.4984 27.8889 28.4213C26.9045 28.2316 25.9152 29.1565 25.6888 30.4847L25.6248 30.8464L25.364 30.5559C25.0342 30.1942 24.7143 30.0578 24.2959 30.0934C23.7791 30.1467 23.3509 30.5143 23.0605 31.1606L23.0583 31.1657C23.0202 31.25 22.9875 31.3223 22.9594 31.3964C22.7898 31.8442 22.7898 32.3562 22.7898 35.9634V39.8649H21.1804C19.379 39.8649 19.3347 39.8767 19.1132 40.274C19.0148 40.4519 19 40.5467 19 41.1041C19 41.6199 19.0148 41.7682 19.0984 41.9223L19.1032 41.9319C19.3001 42.3255 19.3002 42.3257 21.1263 42.3433L22.7898 42.3611V46.1025C22.7898 50.1759 22.7948 50.2293 23.0753 50.8578C23.3411 51.4507 23.9219 51.9013 24.419 51.9013C24.7094 51.9013 25.1376 51.682 25.3738 51.4033L25.5855 51.1602L25.615 51.6286C25.6938 52.7611 26.1515 53.6446 26.875 54.0596C27.1605 54.2256 27.2441 54.2434 27.6379 54.2434C28.0415 54.2434 28.1153 54.2256 28.4057 54.0537C28.5977 53.941 28.8241 53.7394 28.952 53.5734L29.1784 53.2829L29.2375 53.6149C29.4245 54.6525 30.1087 55.5775 30.9159 55.8799C31.3293 56.0341 31.9495 56.0341 32.3481 55.8681C33.1455 55.5479 33.7656 54.7237 33.9871 53.6979C34.0511 53.4074 34.0609 52.5358 34.0609 47.8576V42.3552H34.3316H34.6023V42.7228C34.6073 43.3632 34.878 43.8316 35.3259 43.9917L35.5129 44.0569L35.5375 58.5777C35.549 64.7855 35.5605 70.0404 35.5696 71.9983H38.3908C38.4164 70.0059 38.4332 64.9989 38.4365 57.2496L38.4414 44.0154H38.5546C38.717 44.0154 39.037 43.7486 39.1797 43.4936C39.2781 43.3216 39.3077 43.1912 39.3224 42.8177L39.3372 42.3552H50.5788H61.8203V42.5449C61.8203 43.1082 62.1452 43.6537 62.5635 43.7782L62.7801 43.8434L62.7653 58.139C62.7613 65.0907 62.7704 70.2786 62.7873 71.9983H65.6256C65.6485 70.6816 65.6517 67.0259 65.6446 58.2991L65.6348 43.8553L65.8612 43.7604C65.9842 43.7071 66.1466 43.6063 66.2155 43.541C66.3829 43.3809 66.5453 42.9659 66.565 42.6457L66.5651 42.6438C66.5847 42.3611 66.5851 42.3552 66.7668 42.3552H66.8898V47.8101C66.8898 51.5337 66.9046 53.36 66.944 53.5734C67.1015 54.4984 67.6478 55.3403 68.3516 55.7376C68.6962 55.9392 68.7848 55.9629 69.213 55.9807C69.9906 56.0222 70.5517 55.7495 71.0784 55.0913C71.3638 54.7356 71.6395 54.1071 71.7182 53.6268L71.7773 53.2888L72.0283 53.5912C72.3581 53.9885 72.7518 54.2197 73.1652 54.2612C74.312 54.3679 75.2423 53.2354 75.3407 51.599L75.3702 51.1483L75.5523 51.3677C76.266 52.2275 77.3685 51.9784 77.8853 50.8341L77.8877 50.8288C77.9281 50.7394 77.9625 50.6632 77.9918 50.5851C78.1609 50.1343 78.1609 49.62 78.1609 46.1381V42.3611L79.8491 42.3433C81.6999 42.3257 81.7 42.3255 81.8953 41.9349L81.9016 41.9223C81.9852 41.7682 82 41.6199 82 41.1041C82 40.5467 81.9852 40.4519 81.8868 40.274C81.6653 39.8708 81.621 39.8649 79.7999 39.8649H78.1659L78.1511 35.8151L78.1363 31.7714L78.0231 31.4393C77.5506 30.0697 76.394 29.6546 75.5917 30.5618C75.4539 30.7219 75.3358 30.8464 75.3309 30.8345C75.3268 30.8296 75.3093 30.7238 75.2867 30.5869L75.2718 30.4966C75.1438 29.7258 74.6369 28.9016 74.1053 28.6051C73.3769 28.2019 72.5697 28.3917 72.0086 29.1091C71.8659 29.287 71.7477 29.4293 71.7428 29.4174C71.7379 29.4056 71.7034 29.2929 71.669 29.1625C71.2309 27.5971 69.9956 26.7077 68.7848 27.0872C68.1252 27.2947 67.5346 27.858 67.2147 28.5933C67.2065 28.6122 67.1985 28.6307 67.1907 28.6486C67.1505 28.7415 67.1157 28.822 67.0855 28.9041C66.8898 29.4366 66.8898 30.0411 66.8898 34.5636V34.8072V39.8649H66.7323H66.5699L66.565 39.3727C66.565 38.7502 66.4272 38.3825 66.1122 38.1157L65.8956 37.9378L64.2911 37.9201C62.4749 37.9023 62.406 37.9141 62.0959 38.3232C61.8892 38.6019 61.8203 38.8687 61.8203 39.432V39.8649H50.5738H39.3273V39.4617C39.3273 38.9517 39.1895 38.6019 38.8942 38.3529L38.6777 38.175L37.0977 38.1572C35.3652 38.1335 35.252 38.1513 34.9616 38.4596C34.7155 38.7205 34.6023 39.0407 34.6023 39.4913V39.8649H34.3316H34.0609V34.7775C34.0609 30.4254 34.0511 29.6427 33.9871 29.3403C33.6426 27.7098 32.353 26.7077 31.0734 27.0813Z" fill="black"/>
<path fill-rule="evenodd" clip-rule="evenodd" d="M47.8769 54.4319C48.1328 54.2777 49.0877 54.1235 50.2394 54.0524C51.2878 53.9812 51.4108 53.9812 52.3706 54.0465C53.7241 54.1354 54.5017 54.2896 54.9201 54.5564C55.747 55.0663 56.2392 56.4597 56.5345 59.116C56.6279 59.9713 57.3994 69.9941 57.5284 71.9982H57.3184C57.3211 71.9533 57.319 71.9046 57.3121 71.8759C57.2974 71.8403 57.2875 71.8818 57.2875 71.9826C57.2875 71.988 57.2876 71.9932 57.2876 71.9982H56.9189C56.8987 71.8684 56.8882 71.873 56.885 71.9982H44.6186C44.6161 71.9795 44.6126 71.9791 44.6069 71.9982H44.2179C44.2178 71.9785 44.2169 71.9671 44.215 71.9648C44.2067 71.9548 44.1985 71.9691 44.1928 71.9982H44C44.1114 70.8636 44.4269 68.0712 45.0468 62.6736C45.3815 59.7505 45.4996 59.0271 45.8196 57.8412C46.2921 56.1039 46.9614 54.9892 47.8769 54.4319Z" fill="black"/>
<path fill-rule="evenodd" clip-rule="evenodd" d="M58.2591 131.959C82.9873 118.275 102 73.8126 102 51C102 22.8335 79.1665 0 51 0C22.8335 0 0 22.8335 0 51C5.49795e-05 71.2676 22.7196 116.689 44.0387 131.35C48.2703 134.26 53.7655 134.445 58.2591 131.959ZM51.0001 83C70.33 83 86.0001 67.33 86.0001 48C86.0001 28.67 70.33 13 51.0001 13C31.6701 13 16.0001 28.67 16.0001 48C16.0001 67.33 31.6701 83 51.0001 83Z" fill="black"/>
</svg>
