<svg width="98" height="72" viewBox="0 0 98 72" fill="none" xmlns="http://www.w3.org/2000/svg">
<circle cx="49" cy="36" r="17" fill="black"/>
<path fill-rule="evenodd" clip-rule="evenodd" d="M49 60C62.2548 60 73 49.2548 73 36C73 22.7452 62.2548 12 49 12C35.7452 12 25 22.7452 25 36C25 49.2548 35.7452 60 49 60ZM49 54.5455C59.2424 54.5455 67.5454 46.2424 67.5454 36C67.5454 25.7576 59.2424 17.4545 49 17.4545C38.7576 17.4545 30.4545 25.7576 30.4545 36C30.4545 46.2424 38.7576 54.5455 49 54.5455Z" fill="black"/>
<path d="M17.9308 12.0708C17.8374 12.1516 17.8332 12.17 17.6931 14.1316C17.6337 14.9288 17.5404 16.2182 17.481 16.9969C17.4258 17.7757 17.3579 18.8153 17.3325 19.3112C17.307 19.8071 17.2688 20.4426 17.2476 20.7255C17.2222 21.0084 17.167 21.7945 17.1203 22.4704C17.0736 23.1463 17.0227 23.8516 17.0058 24.039C16.993 24.2483 17.0015 24.4835 17.0312 24.6598C17.0949 24.9904 17.3325 25.659 17.5064 25.9896C17.6974 26.3532 18.5545 27.4186 19.1315 27.999C19.6832 28.5537 19.9208 28.9137 20.099 29.4683C20.1881 29.7439 20.1966 29.8283 20.1923 30.8643C20.1881 31.9994 20.1626 32.6863 19.9844 36.1724C19.925 37.2928 19.8614 38.6006 19.8359 39.0745C19.8104 39.5483 19.7638 40.474 19.7298 41.1316C19.6959 41.7891 19.6492 42.9022 19.6237 43.6112C19.5813 44.8932 19.5516 45.4994 19.4328 47.7989C19.297 50.374 19.1188 54.1136 19.0934 54.8153C19.0806 55.2193 19.0509 55.7887 19.0255 56.0789C18.9576 56.9312 19.0679 57.4822 19.4201 58.0773C19.6619 58.4814 19.9038 58.6981 20.2942 58.8634C20.5997 58.9957 20.6378 59.003 21.0197 58.9993C21.4907 58.9993 21.7071 58.9332 22.0466 58.6871C22.4963 58.3638 22.8994 57.6512 23.0352 56.9459C23.0607 56.8026 22.9376 53.5479 22.8061 50.9581C22.7042 48.9928 22.5515 45.2826 22.5091 43.8867C22.4836 43.0491 22.4284 41.4843 22.3818 40.4153C22.3393 39.3426 22.2799 37.9063 22.2545 37.2194C22.229 36.5324 22.1823 35.39 22.1484 34.6847C22.1144 33.9757 22.055 32.5798 22.0169 31.5806L21.9447 29.7622L22.0508 29.3912C22.1866 28.9247 22.4412 28.4839 22.8146 28.0541C23.4086 27.3708 24.4227 26.0704 24.5627 25.8096C24.7621 25.4459 24.9106 24.983 24.97 24.5422C25.0167 24.2263 25.0125 24.0794 24.9319 23.4071C24.8852 22.981 24.8258 22.3639 24.8003 22.0296C24.7749 21.6953 24.7367 21.1663 24.7112 20.8541C24.6645 20.1928 24.3633 17.1549 24.2699 16.3724C24.236 16.0786 24.1893 15.5165 24.1639 15.1235C24.1045 14.0949 23.9347 12.2435 23.8881 12.1406C23.8499 12.0598 23.642 11.99 23.5274 12.0194C23.4807 12.0341 23.4128 12.0782 23.3831 12.1222C23.3195 12.2104 23.3152 12.3096 23.2092 16.5194C23.0946 21.2361 23.1031 21.001 23.014 21.0781C22.9249 21.1553 22.7467 21.1663 22.5769 21.1112C22.5006 21.0892 22.4666 21.0414 22.4496 20.9569C22.4369 20.8908 22.4072 20.101 22.3818 19.201C22.3351 17.5443 22.2884 15.9831 22.212 13.5255L22.1696 12.1663L22.0593 12.0818C21.9277 11.9826 21.7877 11.979 21.6562 12.0708C21.5628 12.1369 21.5544 12.17 21.5247 12.7945C21.4865 13.6651 21.4186 15.939 21.3592 18.3194C21.338 19.381 21.304 20.439 21.287 20.6704L21.2573 21.0892L21.1216 21.1222C20.9561 21.1663 20.7864 21.1333 20.7524 21.0524C20.7227 20.9826 20.6718 20.0275 20.5572 17.401C20.5106 16.321 20.4554 15.0133 20.4299 14.499C20.4087 13.9847 20.379 13.25 20.362 12.868C20.3366 12.2031 20.3323 12.17 20.2348 12.0855C20.1075 11.9753 19.8698 11.9716 19.751 12.0745C19.6662 12.148 19.6662 12.1957 19.6662 16.5524C19.6662 20.7292 19.6619 20.9606 19.5898 21.0377C19.4965 21.1369 19.174 21.1773 18.9915 21.1112C18.8176 21.0488 18.7879 20.9386 18.7582 20.2847C18.7412 19.9798 18.703 19.1312 18.6691 18.3928C18.5163 15.1345 18.4781 14.2308 18.4781 13.7826C18.4781 13.5182 18.4654 13.0406 18.4484 12.721C18.4272 12.2214 18.4102 12.1259 18.3423 12.0671C18.2447 11.9826 18.0326 11.9826 17.9308 12.0708Z" fill="black"/>
<path d="M78.6437 13.093C78.0876 13.3056 77.51 13.9327 77.0272 14.8469C76.6176 15.6229 76.1176 17.0898 75.8718 18.213C75.777 18.6524 75.652 19.2193 75.596 19.4744C75.2985 20.7996 75.2209 21.5969 75.0571 25.126C75.0312 25.6646 75.0054 26.9827 75.0011 28.0492C74.9968 29.9059 75.0011 30.0441 75.1131 31.0575C75.333 33.0311 75.3502 33.1161 75.8977 35.2952C76.3762 37.2015 76.4409 37.531 76.6047 39.0299C76.7685 40.518 76.7728 42.1196 76.6133 44.4865C76.5659 45.1881 76.5185 46.0172 76.5012 46.329C76.4409 47.6649 76.3848 48.5046 76.2641 49.8723C75.9365 53.6566 75.7684 55.8888 75.7684 56.4983C75.7684 56.9802 75.8589 57.168 76.1952 57.4337C76.6521 57.7845 77.2642 57.9581 78.1825 57.9935C79.2903 58.0361 80.0404 57.8695 80.5577 57.4691C80.8379 57.2494 80.9672 57.0085 80.9974 56.6754C81.0147 56.438 80.9457 55.6479 80.8121 54.5849C80.7776 54.3121 80.7172 53.8089 80.6827 53.4688C80.6439 53.1286 80.5663 52.4979 80.5103 52.0692C80.4499 51.6404 80.3724 50.8999 80.3379 50.4215C80.3034 49.9432 80.2042 48.8908 80.1223 48.083C79.73 44.2279 79.6524 42.7964 79.6826 39.9511C79.7085 37.5204 79.7473 36.7196 79.9068 35.3271C79.9671 34.8098 80.0232 34.2854 80.0361 34.1578C80.0835 33.6724 80.2732 30.1752 80.3163 28.9811C80.3422 28.2901 80.4025 27.0819 80.4499 26.2917C80.5577 24.5165 80.6008 23.3012 80.6612 20.3744C80.7345 16.7922 80.7345 15.0205 80.6698 14.6875C80.5319 14.0142 80.3292 13.5288 80.0921 13.3056C79.7731 13.0079 79.1179 12.9087 78.6437 13.093Z" fill="black"/>
<rect x="1.5" y="1.5" width="95" height="69" rx="8.5" stroke="black" stroke-width="3"/>
</svg>
