<svg width="98" height="72" viewBox="0 0 98 72" fill="none" xmlns="http://www.w3.org/2000/svg">
<path fill-rule="evenodd" clip-rule="evenodd" d="M49.6618 20.2441C49.2837 19.9104 48.7163 19.9104 48.3382 20.2441L47.3008 21.1599L32.2912 34.4102L30.3093 36.1599H32.9531H65.0469H67.6907L65.7097 34.4111C65.7094 34.4108 65.7091 34.4105 65.7087 34.4102L50.6991 21.1599L49.6618 20.2441Z" fill="black"/>
<path fill-rule="evenodd" clip-rule="evenodd" d="M48.3757 9.21793C48.7429 8.92015 49.2684 8.92015 49.6356 9.21794L52.0643 11.1877L80.4595 34.2178V34.2178C81.1888 34.8094 80.7772 35.9945 79.8381 35.9945V35.9945L79.8296 35.9945H72.9959C72.7612 35.9945 72.534 35.912 72.354 35.7613L70.5371 34.2404L51.155 18.0154L49.6476 16.7535C49.2761 16.4426 48.7352 16.4426 48.3638 16.7535L46.8564 18.0154L27.4743 34.2404L25.6574 35.7613C25.4774 35.912 25.2502 35.9945 25.0155 35.9945H18.1817L18.1732 35.9945V35.9945C17.2341 35.9945 16.8225 34.8094 17.5518 34.2178V34.2178L45.947 11.1877L48.3757 9.21793Z" fill="black"/>
<path fill-rule="evenodd" clip-rule="evenodd" d="M67.6907 38H30.3093V40V60C30.3093 60.5523 30.757 61 31.3093 61H43.4536C44.0059 61 44.4536 60.5523 44.4536 60V45C44.4536 44.4477 44.9013 44 45.4536 44H52.5464C53.0987 44 53.5464 44.4477 53.5464 45V60C53.5464 60.5523 53.9941 61 54.5464 61H66.6907C67.243 61 67.6907 60.5523 67.6907 60L67.6907 40C67.6907 39.9991 67.6907 39.9981 67.6907 39.9972V38Z" fill="black"/>
<rect x="1.5" y="1.5" width="95" height="69" rx="8.5" stroke="black" stroke-width="3"/>
</svg>
