<?xml version="1.0" standalone="no"?>
<!DOCTYPE svg PUBLIC "-//W3C//DTD SVG 20010904//EN"
 "http://www.w3.org/TR/2001/REC-SVG-20010904/DTD/svg10.dtd">
<svg version="1.0" xmlns="http://www.w3.org/2000/svg"
 width="2379.000000pt" height="2004.000000pt" viewBox="0 0 2379.000000 2004.000000"
 preserveAspectRatio="xMidYMid meet">

<g transform="translate(0.000000,2004.000000) scale(0.100000,-0.100000)"
fill="#000000" stroke="none">
<path d="M5375 19120 c-189 -20 -305 -70 -415 -180 -211 -209 -287 -577 -191
-910 41 -139 40 -172 -4 -234 -45 -63 -55 -101 -55 -206 0 -157 42 -271 135
-369 28 -31 58 -72 65 -91 11 -26 15 -126 17 -405 l4 -370 -228 -110 c-269
-130 -516 -262 -593 -316 -70 -49 -149 -81 -270 -109 -295 -68 -393 -107 -516
-203 -117 -92 -202 -208 -294 -400 -56 -116 -91 -208 -196 -502 -67 -192 -160
-375 -237 -473 -112 -140 -148 -209 -318 -600 -114 -262 -178 -364 -357 -568
-209 -239 -328 -411 -454 -659 -107 -212 -154 -320 -490 -1135 -391 -948 -448
-1106 -520 -1430 -33 -152 -33 -407 0 -529 40 -145 78 -196 147 -194 44 1 90
27 145 82 64 64 79 114 91 291 10 152 31 275 53 305 11 15 15 11 34 -42 30
-82 67 -115 135 -121 46 -4 57 -1 83 21 38 32 67 124 88 277 20 140 50 265 86
358 46 117 56 185 41 284 -10 69 -10 92 2 135 32 118 136 240 367 433 69 57
191 169 271 249 234 234 384 437 536 726 115 217 215 372 431 665 269 363 639
800 678 800 8 0 14 -11 14 -26 0 -59 76 -268 213 -589 228 -534 267 -642 267
-740 0 -214 -99 -994 -211 -1660 -50 -299 -93 -521 -188 -982 -86 -418 -107
-594 -137 -1178 -12 -229 -15 -418 -11 -665 8 -525 40 -801 157 -1330 11 -52
23 -140 26 -195 14 -228 -67 -674 -190 -1046 -96 -294 -121 -483 -121 -934 0
-374 6 -456 66 -934 54 -436 71 -655 72 -951 1 -388 -21 -512 -111 -643 -27
-40 -77 -123 -110 -185 -88 -164 -156 -253 -322 -419 -123 -124 -152 -159
-180 -218 -44 -93 -49 -149 -18 -195 36 -53 186 -177 254 -211 48 -24 83 -33
155 -39 52 -5 124 -12 160 -16 61 -6 72 -4 126 23 168 84 369 283 432 427 30
69 92 146 148 186 71 49 102 81 126 125 20 38 22 59 28 415 9 495 28 738 85
1110 32 207 65 369 109 535 62 238 98 329 234 590 25 48 26 55 25 220 -1 98
-15 326 -34 540 -19 228 -30 406 -28 465 5 112 14 135 147 385 152 285 183
381 226 700 40 297 73 501 121 745 62 315 105 474 163 599 131 281 250 760
281 1131 6 74 15 191 18 260 l7 125 13 -185 c8 -102 20 -234 28 -295 48 -351
165 -800 274 -1046 64 -144 78 -188 120 -399 47 -238 88 -479 139 -835 62
-428 93 -525 261 -829 183 -332 182 -328 121 -766 -53 -385 -65 -513 -58 -640
6 -118 24 -181 82 -279 81 -137 140 -292 196 -510 98 -384 151 -843 184 -1616
8 -187 18 -354 23 -371 18 -57 41 -92 105 -150 88 -83 140 -149 176 -224 52
-111 244 -311 389 -405 44 -28 51 -30 142 -28 239 5 478 106 578 246 83 116
54 178 -221 466 -147 155 -237 265 -237 293 0 21 -61 135 -112 211 -191 282
-210 594 -93 1582 60 509 69 631 69 1000 1 443 -21 621 -115 920 -129 415
-211 903 -188 1126 4 46 26 166 49 265 162 726 185 1644 64 2554 -30 225 -47
324 -130 735 -203 1009 -344 1972 -344 2352 0 119 3 143 26 211 31 89 149 383
224 557 113 261 206 506 224 588 4 15 13 27 20 27 21 0 90 -72 256 -265 381
-445 651 -812 808 -1100 157 -288 242 -416 394 -599 113 -135 326 -347 494
-491 188 -161 272 -242 296 -290 16 -31 22 -69 29 -185 9 -167 24 -265 50
-332 29 -75 47 -156 74 -329 44 -285 69 -339 163 -339 60 0 102 28 136 90 22
40 31 49 41 40 29 -24 46 -106 55 -260 6 -98 15 -173 26 -204 29 -85 187 -223
245 -214 30 4 80 97 115 213 25 81 27 106 28 250 0 175 -10 244 -69 470 -66
254 -194 597 -390 1045 -56 129 -155 366 -220 525 -64 160 -142 351 -172 425
-87 213 -244 524 -331 655 -77 115 -167 232 -322 415 -162 193 -262 355 -340
552 -104 261 -224 481 -327 600 -91 105 -162 252 -250 523 -145 445 -245 639
-403 788 -97 91 -207 150 -375 201 -369 112 -395 122 -535 206 -74 45 -277
152 -451 238 l-316 157 -7 110 c-4 61 -8 211 -9 335 -2 265 -2 267 102 405 81
108 106 154 127 235 28 110 17 288 -22 348 -8 12 -11 22 -8 22 4 0 -1 9 -11
20 -33 37 -31 131 6 282 28 110 34 151 33 238 0 94 -4 117 -38 220 -95 289
-204 422 -404 494 -41 14 -115 33 -165 42 -108 18 -475 27 -592 14z m450 -71
c239 -20 338 -53 430 -140 97 -91 167 -222 207 -387 16 -67 21 -116 20 -212
-1 -125 -19 -247 -37 -243 -5 1 -16 44 -23 95 -14 102 -61 253 -95 307 -11 19
-34 50 -50 68 -34 39 -69 42 -166 17 -127 -32 -764 -35 -906 -4 -27 6 -74 14
-103 17 -52 5 -53 5 -92 -36 -76 -80 -139 -250 -140 -376 0 -76 -12 -97 -34
-63 -53 82 -45 335 19 535 66 208 217 351 421 399 140 32 346 41 549 23z m424
-589 c47 -48 109 -238 95 -297 -26 -120 27 -354 94 -413 10 -8 28 -35 40 -58
20 -39 22 -53 17 -130 -6 -81 -11 -123 -15 -129 -2 -2 -4 -7 -5 -13 -1 -5 -3
-11 -5 -12 -1 -2 -3 -11 -5 -21 -6 -33 -56 -96 -86 -109 -16 -7 -29 -15 -29
-19 0 -3 -9 -15 -20 -27 -12 -12 -18 -22 -15 -22 3 0 -1 -10 -9 -22 -8 -13
-17 -42 -21 -66 -18 -113 -235 -311 -460 -418 -113 -54 -164 -66 -229 -53
-119 22 -328 151 -461 284 -44 44 -85 91 -91 105 -56 124 -92 185 -144 245
-120 137 -152 249 -111 384 16 52 29 75 54 95 74 58 70 46 87 272 19 265 68
407 147 427 13 3 141 -6 285 -19 388 -35 522 -30 693 25 33 11 83 20 112 20
44 1 56 -3 82 -29z m-20 -1700 c5 -52 12 -221 16 -375 6 -301 18 -442 41 -507
8 -22 14 -44 14 -48 0 -15 -54 -30 -157 -41 -149 -15 -267 -55 -373 -124 -46
-31 -95 -58 -107 -61 -17 -5 -46 7 -106 44 -152 93 -290 138 -460 149 -67 4
-100 10 -104 19 -3 7 2 33 11 56 26 70 36 221 43 616 3 204 8 372 9 372 2 0
50 -31 106 -69 205 -137 374 -211 482 -211 138 0 354 101 489 228 40 37 72 61
78 55 4 -4 13 -51 18 -103z m331 -610 c24 -12 68 -28 99 -36 70 -18 297 -127
392 -189 98 -63 92 -67 -225 -117 -270 -43 -304 -45 -353 -19 -107 54 -159
182 -179 439 l-7 93 116 -75 c63 -41 134 -84 157 -96z m-1618 -50 c0 -69 -4
-138 -9 -155 -9 -28 -10 -26 -10 21 -1 103 -73 176 -173 176 -99 0 -172 -73
-172 -172 0 -69 36 -126 101 -160 33 -17 112 -15 148 3 33 17 83 71 83 89 0 6
3 8 6 5 16 -16 -47 -86 -100 -112 -72 -35 -138 -35 -231 0 -49 19 -104 29
-185 37 -170 14 -194 18 -210 29 -28 19 41 60 392 235 324 162 343 170 351
150 5 -12 8 -77 9 -146z m-121 -59 c64 -65 20 -171 -71 -171 -33 0 -48 6 -71
29 -64 65 -20 171 71 171 33 0 48 -6 71 -29z m-441 -276 c110 -16 192 -42 187
-59 -3 -10 -40 -37 -177 -125 -73 -48 -263 -237 -385 -385 -269 -324 -475
-516 -644 -600 -71 -35 -423 -144 -481 -148 -34 -3 -35 -2 -33 32 4 76 190
582 291 790 122 251 430 439 812 495 118 18 317 18 430 0z m2855 4 c355 -30
633 -144 813 -333 49 -50 74 -89 111 -168 83 -177 267 -679 286 -781 9 -45 8
-46 -135 -13 -138 31 -347 99 -436 142 -114 54 -331 268 -603 594 -178 214
-269 304 -386 380 -157 102 -178 120 -164 136 36 44 276 64 514 43z m-2010
-60 c110 -27 256 -100 310 -154 70 -69 77 -104 82 -425 6 -289 -5 -491 -32
-595 -8 -33 -36 -102 -61 -154 -40 -81 -60 -108 -143 -190 -138 -137 -279
-215 -491 -272 -72 -20 -110 -23 -255 -24 -178 0 -218 6 -348 55 -87 33 -216
124 -367 261 -157 141 -241 203 -363 266 -62 32 -87 50 -85 62 2 8 48 50 103
92 127 98 277 252 435 449 160 199 369 410 475 478 125 82 274 132 493 167 96
15 128 13 247 -16z m1275 -33 c251 -45 462 -204 753 -566 155 -193 357 -400
487 -500 47 -36 84 -70 84 -75 -1 -5 -44 -33 -97 -61 -105 -56 -212 -137 -352
-265 -322 -294 -570 -376 -920 -304 -226 46 -389 131 -539 281 -128 128 -193
244 -216 389 -31 195 -28 787 4 892 13 41 29 63 80 110 81 74 139 103 229 113
96 12 394 3 487 -14z m-3005 -1254 c66 -30 109 -73 136 -136 19 -43 23 -74 27
-196 5 -173 -5 -232 -58 -338 -69 -137 -501 -684 -690 -872 -196 -196 -339
-248 -493 -177 -77 35 -113 70 -126 121 -18 72 -15 530 5 624 19 96 72 221
181 432 145 280 197 345 346 427 103 57 185 91 292 119 123 33 303 30 380 -4z
m4638 13 c116 -20 263 -74 350 -128 87 -55 188 -157 252 -256 113 -174 237
-482 286 -711 19 -87 23 -136 24 -290 0 -183 0 -185 -27 -231 -30 -50 -108
-109 -172 -129 -23 -8 -72 -11 -122 -8 -70 4 -94 10 -157 41 -93 46 -136 88
-371 362 -370 431 -496 605 -539 740 -19 60 -22 92 -22 230 0 169 9 218 48
276 70 104 234 142 450 104z m-2462 -72 c32 -53 124 -173 208 -273 l72 -85
-108 -6 c-107 -5 -133 -12 -183 -51 -24 -19 -25 -19 -42 1 -30 37 -80 51 -188
51 l-101 0 71 79 c83 91 141 167 177 231 61 107 61 107 94 53z m-1416 -587
c264 -247 493 -461 508 -475 l28 -27 -21 -149 c-11 -83 -37 -233 -57 -335 -36
-181 -37 -191 -37 -425 -1 -132 1 -339 3 -460 4 -244 -5 -314 -56 -447 -56
-143 -159 -266 -275 -328 -51 -28 -76 -34 -140 -38 -90 -5 -108 4 -108 54 0
19 16 143 35 276 87 610 88 868 3 1122 -32 95 -60 162 -188 441 -196 429 -208
483 -212 982 -3 289 -3 292 17 275 10 -9 235 -219 500 -466z m3286 229 c30
-285 29 -394 -6 -510 -30 -104 -126 -345 -232 -590 -190 -436 -212 -506 -220
-715 -6 -155 4 -274 53 -624 47 -338 52 -417 29 -452 -16 -25 -20 -26 -89 -22
-98 6 -174 47 -264 142 -76 80 -138 189 -174 306 -22 74 -23 83 -23 575 l0
500 -47 230 c-25 127 -52 270 -58 319 l-13 90 139 136 c283 276 879 840 881
833 1 -5 12 -102 24 -218z m-1563 -71 c199 -41 431 -138 510 -214 49 -48 51
-64 22 -178 -30 -116 -65 -523 -90 -1032 -39 -819 -58 -1115 -85 -1323 -57
-444 -477 -1137 -689 -1137 -163 0 -468 434 -617 880 -94 283 -121 535 -164
1555 -27 631 -49 937 -79 1066 -22 92 -6 140 66 208 124 116 540 221 651 165
18 -9 49 -32 69 -50 67 -60 107 -59 152 4 17 24 42 50 56 58 33 18 104 17 198
-2z m996 -88 c-5 -14 -214 -213 -305 -291 -41 -35 -55 -42 -61 -31 -10 18 -58
290 -52 295 2 3 95 12 207 21 111 10 205 18 209 19 4 0 5 -5 2 -13z m-2479
-11 c61 -3 139 -8 174 -12 l63 -6 -7 -61 c-10 -95 -35 -230 -44 -239 -10 -10
-124 86 -261 220 l-115 113 40 -5 c22 -2 90 -7 150 -10z m4800 -801 c330 -362
467 -603 763 -1339 107 -267 194 -470 244 -569 58 -116 61 -130 36 -179 -11
-23 -48 -69 -82 -102 -77 -78 -132 -97 -200 -71 -35 13 -52 29 -84 79 -48 75
-210 236 -387 385 -156 131 -360 338 -475 482 -120 151 -199 276 -290 458 -87
175 -140 268 -205 352 -23 30 -44 60 -47 65 -4 6 46 10 140 10 128 1 154 4
203 23 157 62 218 190 219 457 l1 130 37 -41 c20 -22 78 -85 127 -140z m-7139
19 c28 -251 86 -364 219 -425 45 -21 65 -23 202 -23 98 0 149 -4 145 -10 -3
-5 -29 -41 -58 -80 -61 -82 -115 -177 -212 -371 -138 -276 -269 -441 -638
-804 -469 -461 -598 -570 -678 -570 -93 0 -167 99 -167 224 0 59 8 87 87 283
148 371 407 971 493 1141 50 99 175 288 279 421 94 120 302 354 309 347 3 -3
11 -62 19 -133z m4401 -710 c4 -107 0 -212 -12 -355 -22 -253 -17 -344 25
-469 63 -190 155 -325 293 -434 42 -33 76 -63 76 -66 1 -3 -72 -54 -161 -114
-187 -126 -294 -225 -381 -357 -109 -164 -150 -265 -321 -808 -148 -467 -343
-676 -530 -566 -122 72 -227 270 -382 728 -46 136 -102 292 -125 345 -144 344
-326 556 -607 708 -50 28 -92 52 -91 55 0 3 41 38 90 78 114 93 167 160 234
297 101 205 111 294 79 685 -16 196 -14 421 4 470 l9 25 6 -30 c14 -64 28
-213 52 -545 31 -432 41 -540 66 -715 50 -355 125 -577 277 -828 185 -305 398
-513 505 -493 101 19 269 184 420 413 279 423 353 754 402 1793 8 173 18 358
21 410 l7 95 19 -85 c11 -50 21 -147 25 -237z m-2250 -1403 c123 -62 208 -126
351 -265 136 -131 222 -241 273 -350 21 -44 82 -215 137 -380 102 -308 146
-424 209 -548 51 -102 128 -210 179 -252 24 -20 49 -46 55 -57 23 -43 28 -147
19 -363 -11 -240 -29 -405 -61 -554 -45 -206 -234 -741 -263 -741 -13 0 -33
29 -127 190 -162 278 -210 394 -282 675 -63 246 -107 499 -162 935 -123 974
-247 1484 -399 1649 -44 46 -66 81 -66 100 0 22 40 10 137 -39z m2813 42 c0
-5 -32 -62 -71 -128 -78 -131 -129 -229 -158 -302 -53 -135 -168 -797 -256
-1482 -19 -151 -47 -338 -60 -415 -56 -306 -153 -642 -231 -798 -44 -87 -231
-407 -249 -425 -10 -11 -19 2 -48 72 -61 145 -174 486 -211 638 -50 201 -66
335 -73 628 -7 302 -6 309 73 376 121 104 255 371 347 694 124 433 224 629
416 821 156 157 521 381 521 321z m-2996 -75 c151 -256 173 -306 231 -537 109
-436 204 -988 225 -1305 16 -264 108 -701 216 -1036 60 -186 153 -370 239
-470 57 -67 76 -132 82 -295 19 -463 -178 -1184 -378 -1383 -39 -39 -73 -57
-143 -75 -131 -34 -195 28 -296 286 -52 136 -75 158 -163 158 -97 1 -184 16
-216 39 -55 39 -111 199 -165 471 -127 633 -121 1706 15 2565 11 72 58 310
104 530 46 221 107 524 135 675 59 319 79 410 88 410 4 0 16 -15 26 -33z
m3111 -109 c13 -53 45 -212 70 -354 26 -143 78 -421 117 -619 109 -564 140
-762 172 -1120 49 -538 49 -1130 0 -1575 -36 -334 -124 -704 -190 -803 -34
-52 -74 -66 -205 -74 -142 -8 -154 -16 -204 -151 -57 -150 -102 -237 -140
-271 -32 -28 -42 -31 -103 -31 -141 0 -262 103 -346 294 -130 295 -262 954
-242 1213 8 113 32 169 127 303 203 288 304 626 399 1335 89 669 199 1290 275
1555 49 168 204 435 236 403 5 -5 20 -52 34 -105z m3263 -183 c162 -376 219
-547 262 -800 25 -141 30 -351 11 -439 -18 -82 -62 -182 -72 -164 -4 8 -15 84
-24 169 -31 306 -117 544 -248 686 -44 48 -68 59 -96 43 -26 -14 -38 -61 -45
-189 -7 -109 -30 -186 -61 -198 -48 -18 -94 106 -95 250 0 91 -34 254 -70 339
-16 37 -34 94 -41 127 -23 116 36 222 145 259 94 32 150 66 186 115 19 25 38
43 42 39 4 -4 51 -110 106 -237z m-9531 165 c26 -22 80 -53 126 -72 168 -68
220 -172 163 -324 -8 -22 -26 -70 -40 -107 -32 -83 -56 -216 -56 -306 0 -176
-59 -297 -112 -231 -26 31 -36 79 -46 212 -12 168 -42 203 -116 137 -64 -56
-192 -286 -236 -424 -20 -63 -22 -89 -21 -255 1 -152 -1 -189 -14 -205 -15
-20 -15 -20 -31 0 -130 162 -85 669 102 1154 93 241 201 461 226 461 5 0 30
-18 55 -40z m-160 -977 c-4 -10 -16 -45 -27 -78 -16 -44 -25 -103 -33 -220 -5
-88 -14 -164 -18 -169 -5 -5 -16 8 -25 30 -32 75 2 294 63 406 25 46 51 66 40
31z m9739 -98 c39 -85 57 -171 52 -260 -3 -53 -10 -89 -21 -105 l-16 -23 -5
24 c-3 13 -7 80 -11 147 -6 122 -25 243 -46 285 -10 22 -10 22 7 2 9 -11 27
-42 40 -70z m-6406 -3547 c42 -22 49 -32 115 -163 77 -154 116 -214 166 -250
114 -85 352 10 466 186 50 78 63 90 63 56 0 -76 -95 -339 -163 -455 -154 -257
-345 -402 -529 -402 -91 0 -150 41 -262 184 -35 45 -91 107 -124 139 -77 74
-80 88 -52 362 34 347 43 365 188 365 71 0 96 -4 132 -22z m3235 8 c32 -9 42
-18 51 -46 16 -48 41 -227 55 -390 14 -168 8 -196 -61 -268 -27 -29 -84 -95
-124 -146 -153 -191 -211 -214 -407 -156 -84 25 -166 84 -244 176 -167 197
-311 497 -303 634 l3 53 53 -82 c103 -158 275 -245 427 -217 64 12 113 74 201
252 97 195 108 204 228 203 45 0 99 -6 121 -13z m-3514 -813 c19 -21 68 -78
108 -126 112 -135 206 -186 319 -173 29 4 101 24 160 46 58 21 107 38 108 37
1 -1 34 -251 72 -555 l70 -554 -80 -181 c-218 -495 -288 -761 -343 -1317 -14
-143 -85 -1212 -85 -1284 0 -28 -11 -40 -101 -110 -136 -106 -165 -149 -184
-268 -7 -47 -41 -88 -112 -134 -30 -20 -86 -72 -126 -115 -39 -43 -84 -84
-100 -90 -38 -16 -180 -5 -282 21 -156 41 -324 144 -354 219 -11 25 -10 35 8
69 25 49 98 139 200 247 211 222 464 634 523 850 20 73 22 104 22 360 0 289
-15 517 -55 820 -61 471 -79 712 -79 1057 0 362 32 698 84 893 29 106 95 264
131 311 30 39 40 37 96 -23z m3706 -44 c125 -250 168 -524 168 -1079 -1 -422
-17 -651 -89 -1250 -36 -298 -49 -522 -43 -710 6 -188 25 -304 68 -436 29 -86
53 -134 173 -339 26 -44 54 -104 62 -132 17 -58 78 -125 267 -297 126 -113
182 -186 182 -235 0 -130 -198 -264 -439 -298 -140 -19 -169 -12 -274 67 -140
106 -262 250 -262 310 0 57 -64 137 -183 230 l-93 72 -23 382 c-48 814 -69
1053 -121 1361 -55 329 -119 537 -236 765 -41 80 -81 172 -89 205 -19 77 -19
256 0 438 16 144 96 770 99 774 1 1 50 -16 108 -37 134 -50 196 -58 271 -36
73 21 123 61 227 178 89 102 156 161 174 155 6 -2 30 -41 53 -88z"/>
<path d="M3655 15485 c-5 -2 -22 -6 -37 -9 -34 -8 -84 -50 -105 -89 -18 -36
-20 -115 -3 -148 34 -65 91 -101 160 -101 99 0 172 73 172 172 0 88 -58 157
-147 172 -16 3 -34 4 -40 3z m86 -104 c64 -65 20 -171 -71 -171 -33 0 -48 6
-71 29 -64 65 -20 171 71 171 33 0 48 -6 71 -29z"/>
<path d="M4735 14875 c-5 -2 -22 -6 -37 -9 -34 -8 -84 -50 -105 -89 -18 -36
-20 -115 -3 -148 34 -65 91 -101 160 -101 99 0 172 73 172 172 0 88 -58 157
-147 172 -16 3 -34 4 -40 3z m86 -104 c64 -65 20 -171 -71 -171 -33 0 -48 6
-71 29 -64 65 -20 171 71 171 33 0 48 -6 71 -29z"/>
<path d="M2945 13835 c-5 -2 -22 -6 -37 -9 -34 -8 -84 -50 -105 -89 -18 -36
-20 -115 -3 -148 34 -65 91 -101 160 -101 99 0 172 73 172 172 0 88 -58 157
-147 172 -16 3 -34 4 -40 3z m86 -104 c64 -65 20 -171 -71 -171 -33 0 -48 6
-71 29 -64 65 -20 171 71 171 33 0 48 -6 71 -29z"/>
<path d="M4265 13255 c-5 -2 -22 -6 -37 -9 -34 -8 -84 -50 -105 -89 -18 -36
-20 -115 -3 -148 34 -65 91 -101 160 -101 99 0 172 73 172 172 0 88 -58 157
-147 172 -16 3 -34 4 -40 3z m86 -104 c64 -65 20 -171 -71 -171 -33 0 -48 6
-71 29 -64 65 -20 171 71 171 33 0 48 -6 71 -29z"/>
<path d="M5631 13633 c-5 -10 -18 -50 -30 -89 -31 -106 -46 -115 -228 -139
-204 -26 -323 -61 -382 -111 -62 -52 -37 -56 93 -15 130 42 315 55 660 48 286
-6 372 -15 473 -48 68 -22 108 -22 108 0 0 38 -192 100 -404 131 -209 30 -225
39 -236 133 -12 99 -31 132 -54 90z"/>
<path d="M5230 13274 c-74 -14 -104 -46 -56 -58 13 -3 84 -6 158 -5 76 0 146
-5 163 -11 17 -6 58 -41 92 -78 69 -74 75 -74 103 0 29 77 44 83 266 86 208 4
220 8 153 47 -29 17 -52 20 -154 20 -66 0 -163 -5 -215 -12 -65 -8 -120 -9
-175 -2 -100 11 -302 19 -335 13z"/>
<path d="M5626 12864 c-14 -136 -74 -214 -190 -250 -28 -8 -116 -20 -196 -26
-161 -12 -235 -26 -235 -48 0 -7 14 -17 30 -22 63 -19 380 17 510 56 57 18
151 21 190 6 52 -20 223 -49 340 -59 126 -10 206 -4 212 16 8 24 -44 36 -211
48 -94 7 -190 20 -213 28 -122 42 -182 108 -203 225 -18 98 -26 104 -34 26z"/>
<path d="M5282 12480 c-73 -8 -132 -26 -132 -40 0 -17 41 -22 216 -29 216 -8
225 -12 249 -99 9 -31 18 -61 20 -67 2 -5 8 4 15 22 6 18 21 51 33 75 29 58
64 68 257 75 85 3 164 9 175 14 35 13 -41 37 -154 48 -116 12 -567 12 -679 1z"/>
<path d="M5626 12035 c-11 -103 -24 -143 -51 -161 -18 -12 -67 -18 -187 -25
-218 -12 -366 -27 -386 -38 -15 -8 -13 -11 10 -20 66 -25 254 -35 633 -35 379
0 567 10 633 35 24 9 25 11 9 20 -21 12 -146 25 -381 38 -209 12 -213 14 -239
122 -34 144 -33 142 -41 64z"/>
<path d="M5345 11693 c-95 -3 -133 -8 -124 -18 3 -2 59 -13 125 -24 210 -36
235 -51 265 -154 11 -40 23 -79 26 -87 3 -8 14 18 24 59 11 41 27 83 37 94 28
33 89 54 232 82 74 15 139 30 143 34 19 19 -349 25 -728 14z"/>
<path d="M5335 11365 c-5 -2 -22 -6 -37 -9 -34 -8 -84 -50 -105 -89 -18 -36
-20 -115 -3 -148 34 -65 91 -101 160 -101 99 0 172 73 172 172 0 88 -58 157
-147 172 -16 3 -34 4 -40 3z m86 -104 c64 -65 20 -171 -71 -171 -33 0 -48 6
-71 29 -64 65 -20 171 71 171 33 0 48 -6 71 -29z"/>
<path d="M5642 10750 c0 -195 4 -341 8 -325 4 17 8 163 8 325 0 162 -4 309 -8
325 -4 17 -8 -130 -8 -325z"/>
<path d="M1825 12105 c-5 -2 -22 -6 -37 -9 -34 -8 -84 -50 -105 -89 -18 -36
-20 -115 -3 -148 34 -65 91 -101 160 -101 99 0 172 73 172 172 0 88 -58 157
-147 172 -16 3 -34 4 -40 3z m86 -104 c64 -65 20 -171 -71 -171 -33 0 -48 6
-71 29 -64 65 -20 171 71 171 33 0 48 -6 71 -29z"/>
<path d="M4125 8215 c-5 -2 -22 -6 -37 -9 -34 -8 -84 -50 -105 -89 -18 -36
-20 -115 -3 -148 34 -65 91 -101 160 -101 99 0 172 73 172 172 0 88 -58 157
-147 172 -16 3 -34 4 -40 3z m86 -104 c64 -65 20 -171 -71 -171 -33 0 -48 6
-71 29 -64 65 -20 171 71 171 33 0 48 -6 71 -29z"/>
<path d="M3985 4225 c-5 -2 -22 -6 -37 -9 -34 -8 -84 -50 -105 -89 -18 -36
-20 -115 -3 -148 34 -65 91 -101 160 -101 99 0 172 73 172 172 0 88 -58 157
-147 172 -16 3 -34 4 -40 3z m86 -104 c64 -65 20 -171 -71 -171 -33 0 -48 6
-71 29 -23 23 -29 38 -29 71 0 33 6 48 29 71 23 23 38 29 71 29 33 0 48 -6 71
-29z"/>
<path d="M17729 19111 c-51 -6 -84 -17 -140 -50 -137 -78 -402 -278 -440 -331
-28 -39 -39 -171 -50 -605 -11 -449 -20 -575 -45 -624 -14 -28 -16 -53 -11
-160 6 -154 26 -226 109 -405 83 -179 142 -328 162 -410 16 -64 16 -72 1 -111
-38 -102 -191 -202 -514 -339 -157 -67 -298 -136 -339 -166 -20 -15 -53 -23
-122 -31 -114 -11 -205 -35 -321 -84 -247 -103 -538 -317 -654 -480 -59 -82
-153 -280 -205 -430 -58 -166 -138 -316 -228 -427 -88 -110 -180 -247 -215
-320 -14 -29 -88 -183 -165 -343 -133 -277 -182 -393 -182 -434 0 -25 -85
-152 -156 -233 -33 -36 -106 -119 -164 -185 -352 -396 -518 -715 -788 -1513
-124 -366 -179 -515 -222 -601 -37 -72 -55 -149 -70 -294 -19 -188 -56 -349
-138 -610 -36 -112 -36 -256 1 -412 48 -207 99 -303 232 -438 95 -97 143 -130
175 -120 48 15 140 180 148 265 3 39 -1 56 -28 103 -25 44 -33 72 -37 131 -5
68 12 288 25 310 2 4 21 -28 42 -72 72 -152 97 -172 220 -172 l80 0 0 33 c0
17 -5 129 -10 247 -16 341 -39 503 -85 602 -36 77 -33 122 14 213 69 133 204
307 460 591 239 266 463 562 611 807 189 313 426 647 853 1201 165 214 323
422 352 463 l53 73 53 -157 c62 -186 119 -329 228 -566 99 -215 135 -310 171
-459 41 -167 53 -287 53 -503 -1 -286 -24 -497 -123 -1125 -84 -528 -104 -631
-176 -920 -156 -629 -235 -1181 -265 -1875 -18 -404 -4 -628 66 -1083 71 -466
70 -456 70 -772 -1 -396 -34 -776 -86 -985 -11 -44 -45 -138 -76 -210 -153
-356 -179 -514 -170 -1024 6 -357 22 -558 107 -1336 44 -405 53 -556 47 -784
-12 -451 -105 -619 -440 -798 -238 -127 -316 -233 -240 -324 31 -37 154 -97
251 -123 118 -32 255 -97 396 -188 33 -21 89 -47 124 -58 83 -26 261 -36 366
-21 137 19 188 66 221 202 18 75 34 419 35 744 0 334 17 484 86 781 93 403
214 796 350 1141 46 116 93 247 104 290 33 132 44 308 30 505 -11 174 -17 226
-65 593 -34 251 -38 469 -12 565 21 76 58 146 132 244 128 173 163 283 256
805 22 124 60 316 85 426 43 195 76 329 262 1065 135 530 197 852 222 1155 21
248 24 254 31 80 15 -343 112 -832 308 -1548 111 -407 201 -811 281 -1262 76
-429 108 -522 247 -727 164 -241 148 -201 147 -362 -1 -84 -14 -253 -33 -420
-75 -657 -80 -936 -20 -1169 11 -43 44 -134 74 -203 122 -279 211 -552 320
-979 118 -459 131 -571 140 -1195 6 -423 16 -526 60 -615 48 -99 156 -134 381
-121 139 7 215 30 324 97 115 70 303 159 430 204 58 21 131 50 162 66 49 25
58 34 64 63 3 19 1 51 -6 70 -18 55 -114 136 -232 196 -178 91 -264 160 -354
282 -118 161 -129 213 -121 593 6 291 20 484 62 865 64 581 88 1006 83 1455
-5 398 -2 380 -127 697 -44 112 -91 247 -105 300 -56 215 -89 587 -90 998 -1
286 1 316 27 480 78 492 94 655 104 995 6 245 -7 556 -38 853 -47 462 -111
842 -299 1752 -159 772 -222 1243 -222 1650 0 218 11 341 49 509 35 161 70
252 178 472 116 236 165 358 225 562 l46 159 139 -184 c76 -101 204 -266 285
-368 368 -465 661 -885 866 -1242 40 -71 88 -149 105 -175 91 -135 281 -364
498 -603 266 -291 412 -492 451 -618 25 -82 25 -94 -4 -178 -49 -140 -83 -372
-93 -631 -7 -190 -1 -213 58 -237 59 -24 121 -21 146 7 12 12 46 75 76 140 31
64 58 117 60 117 3 0 2 -20 0 -44 -3 -24 3 -89 12 -146 20 -121 16 -164 -26
-268 -23 -57 -29 -87 -26 -116 10 -74 111 -236 157 -251 37 -12 127 57 228
175 78 92 133 202 166 335 60 241 60 323 -2 515 -71 219 -83 278 -112 554 -11
105 -32 174 -97 321 -46 102 -129 340 -231 655 -199 618 -425 1051 -726 1395
-290 331 -340 398 -362 481 -24 93 -60 177 -173 404 -177 353 -310 573 -441
730 -95 113 -122 161 -132 234 -31 233 -227 557 -460 762 -205 181 -410 280
-741 357 -83 20 -139 41 -237 91 -71 36 -178 86 -237 110 -248 102 -339 152
-425 233 -110 105 -121 185 -48 342 22 48 47 119 56 157 29 130 35 144 80 196
74 83 114 200 114 337 0 64 -5 83 -32 140 l-33 66 0 470 c0 425 -2 477 -19
545 -42 169 -124 269 -334 408 -133 87 -196 116 -294 132 -81 13 -492 21 -579
11z m361 -52 c193 -23 328 -74 495 -183 175 -115 229 -179 260 -308 56 -234 1
-1306 -85 -1675 -40 -169 -115 -268 -256 -335 -135 -65 -240 -82 -499 -82
-205 0 -227 2 -315 26 -111 30 -209 74 -271 122 -139 107 -194 365 -230 1081
-17 340 -17 776 0 850 40 177 117 254 411 408 182 96 302 120 490 96z m-970
-1728 c13 -68 13 -131 0 -131 -15 0 -30 69 -30 140 0 76 15 71 30 -9z m1820
-43 c0 -38 -26 -98 -42 -98 -8 0 -2 36 13 78 5 13 9 35 9 48 0 14 4 22 10 19
6 -3 10 -24 10 -47z m-318 -853 c5 -22 27 -64 49 -94 28 -37 37 -57 30 -64
-17 -17 -320 -26 -875 -26 -466 -1 -518 1 -512 15 15 40 87 152 115 178 l30
29 163 -37 c90 -21 208 -42 263 -47 173 -17 481 17 625 69 83 30 103 26 112
-23z m-142 -295 c344 -10 435 -19 550 -55 93 -30 343 -153 389 -192 38 -32 35
-53 -5 -53 -50 0 -154 -68 -299 -195 -114 -100 -172 -142 -220 -161 -43 -16
-51 -16 -143 0 -141 24 -364 35 -727 36 -355 0 -605 -12 -739 -36 -133 -25
-155 -16 -326 132 -181 155 -283 224 -334 224 -65 0 -33 53 61 102 222 117
428 177 673 197 146 12 743 12 1120 1z m1388 -385 c275 -92 504 -233 653 -401
164 -185 334 -535 303 -622 -15 -44 11 -47 -509 54 -225 44 -303 80 -534 246
-141 102 -478 369 -563 447 -79 72 -81 82 -22 143 93 95 305 176 464 177 63 1
96 -6 208 -44z m-3279 10 c79 -19 192 -77 243 -126 43 -41 48 -73 21 -121 -34
-58 -457 -394 -714 -567 -171 -114 -267 -151 -485 -185 -302 -47 -368 -58
-406 -72 -23 -8 -45 -11 -50 -6 -4 4 1 42 12 84 105 401 333 690 685 870 125
64 204 93 325 118 107 23 282 25 369 5z m1716 -305 c329 -19 554 -47 590 -74
14 -10 -3 -48 -136 -316 -213 -430 -322 -685 -499 -1165 -157 -423 -211 -500
-291 -414 -41 44 -92 157 -225 493 -247 627 -351 861 -529 1198 -63 119 -115
218 -115 221 0 2 61 7 135 11 120 6 223 20 335 46 51 11 536 11 735 0z m-2485
-867 c45 -145 105 -520 98 -613 -5 -70 -48 -157 -164 -334 -169 -255 -405
-548 -578 -714 -78 -75 -113 -101 -182 -134 -81 -39 -88 -41 -112 -27 -32 18
-50 73 -83 253 l-23 128 -61 -5 c-102 -10 -305 -20 -305 -15 0 2 9 55 20 116
31 170 69 267 218 556 34 66 71 149 83 185 73 224 248 442 450 562 114 68 215
98 409 123 205 27 196 30 230 -81z m4665 76 c105 -11 211 -25 237 -30 175 -38
424 -341 639 -778 141 -286 229 -506 249 -623 6 -34 13 -75 16 -89 l5 -26
-108 18 c-59 10 -133 18 -165 19 -50 0 -59 -3 -81 -29 -29 -35 -65 -162 -74
-258 -10 -117 -40 -140 -129 -99 -77 35 -159 103 -294 243 -203 209 -534 644
-618 812 -47 93 -47 95 -46 190 0 72 13 164 52 366 29 149 54 280 57 292 4 18
11 21 38 17 17 -2 118 -13 222 -25z m-2256 -1187 c6 -20 17 -85 25 -143 27
-192 88 -349 305 -792 72 -147 146 -309 163 -360 l32 -92 2 -270 c1 -283 5
-343 31 -437 8 -32 13 -63 10 -71 -4 -10 -36 -16 -121 -20 -133 -7 -212 -25
-311 -71 -138 -65 -219 -142 -297 -284 l-35 -63 -92 108 c-148 174 -267 259
-408 293 -29 6 -111 15 -181 18 l-129 7 25 80 c24 77 25 89 23 290 -6 417 -8
391 28 487 18 48 91 206 163 350 250 505 298 632 325 854 9 76 19 142 23 147
3 4 31 -15 61 -41 146 -130 191 -132 270 -14 55 82 72 86 88 24z m-3839 -393
c24 -18 49 -23 161 -30 165 -10 165 -9 185 -145 18 -121 29 -156 60 -194 36
-42 81 -54 150 -40 30 7 58 9 62 6 3 -3 -58 -99 -135 -214 -77 -114 -182 -277
-233 -362 -186 -310 -318 -487 -555 -745 -209 -227 -312 -353 -440 -540 -91
-132 -156 -200 -211 -221 -112 -43 -263 32 -281 140 -7 47 33 200 133 507 147
449 244 691 405 1009 167 330 306 533 500 732 126 129 144 137 199 97z m7382
-23 c65 -53 220 -226 294 -329 182 -252 404 -702 577 -1167 122 -329 247 -734
247 -802 0 -114 -177 -213 -293 -164 -38 15 -92 76 -247 279 -134 176 -243
307 -399 481 -287 320 -397 468 -587 791 -89 153 -164 270 -273 428 -67 96
-73 113 -38 103 12 -4 45 -9 72 -12 120 -14 173 88 175 337 l0 77 68 -13 c169
-32 259 -28 289 14 22 32 56 25 115 -23z m-4211 -1875 c124 -40 282 -166 337
-268 67 -127 86 -356 79 -966 -3 -339 -7 -423 -20 -475 -48 -182 -150 -278
-339 -318 -97 -21 -343 -13 -478 15 -294 62 -463 179 -585 403 l-40 73 0 160
c1 185 17 302 76 537 74 296 189 585 270 682 62 74 188 140 324 172 90 20 291
13 376 -15z m1342 -10 c179 -47 284 -127 355 -269 49 -98 127 -332 183 -550
128 -499 104 -768 -86 -957 -104 -104 -251 -183 -406 -220 -164 -39 -497 -39
-625 -1 -139 42 -211 148 -251 368 -20 113 -30 830 -14 1005 22 226 73 366
175 479 85 94 170 140 304 164 79 15 278 4 365 -19z m562 -307 c189 -190 224
-251 237 -413 10 -127 20 -176 49 -234 112 -219 281 -1272 320 -1985 45 -842
-196 -2232 -387 -2232 -29 0 -86 76 -164 220 -103 189 -157 260 -196 260 -18
0 -26 -11 -42 -52 -27 -72 -48 -172 -72 -332 -40 -275 -71 -345 -151 -348 -47
-2 -93 25 -166 95 -121 116 -129 140 -273 802 -76 349 -161 692 -234 940 -56
191 -78 321 -78 460 0 135 13 190 102 455 66 200 83 271 96 414 9 100 29 117
159 140 252 45 403 79 471 106 204 81 347 229 440 452 38 90 39 97 38 208 0
207 -102 641 -237 1010 -19 52 -37 108 -41 123 -6 26 -5 27 14 17 12 -6 64
-54 115 -106z m-2775 84 c0 -7 -21 -71 -45 -143 -129 -368 -244 -870 -231
-1005 15 -168 139 -403 273 -520 64 -55 208 -124 313 -149 47 -11 146 -30 220
-41 218 -34 289 -57 305 -98 3 -9 10 -71 15 -138 10 -144 34 -241 107 -428 69
-177 85 -248 85 -366 0 -117 -31 -271 -108 -545 -78 -281 -154 -597 -214 -895
-78 -390 -124 -571 -165 -649 -63 -120 -187 -221 -272 -221 -74 0 -100 59
-142 325 -44 272 -61 340 -93 375 -47 50 -100 1 -190 -175 -73 -144 -120 -220
-160 -257 -28 -26 -31 -27 -58 -13 -102 53 -212 417 -290 962 -130 910 -92
1798 116 2738 122 551 195 842 227 909 46 95 112 180 210 271 83 76 97 85 97
63z m-3576 -331 c65 -78 107 -98 229 -107 82 -7 103 -12 123 -31 52 -49 99
-234 114 -452 6 -78 19 -185 30 -237 25 -122 25 -162 0 -185 -23 -21 -64 -23
-87 -4 -32 27 -55 98 -60 195 -8 121 -12 125 -104 89 -88 -34 -160 -103 -212
-202 -93 -180 -90 -288 17 -451 58 -90 66 -106 66 -136 0 -33 -20 -34 -76 -1
-120 70 -220 259 -260 490 -26 148 -15 222 91 575 38 125 56 238 62 393 3 76
9 134 12 130 4 -4 29 -34 55 -66z m9875 -102 c15 -178 48 -341 108 -536 47
-149 48 -158 47 -274 -1 -95 -6 -141 -27 -220 -49 -184 -146 -339 -254 -401
-90 -54 -82 15 21 170 74 109 84 148 66 246 -24 131 -58 219 -103 264 -47 46
-202 136 -235 136 -23 0 -25 -9 -37 -125 -13 -132 -94 -219 -160 -171 -23 16
-23 51 -2 171 9 50 23 160 32 245 20 192 38 281 66 327 12 20 27 63 33 97 l11
61 87 -4 c105 -4 138 10 249 104 41 35 77 61 80 57 3 -4 11 -70 18 -147z
m-9728 -950 c-15 -153 -9 -205 31 -298 16 -38 28 -73 26 -79 -6 -16 -110 104
-136 155 -12 24 -22 62 -22 84 0 53 34 183 66 252 23 50 26 54 36 36 8 -14 8
-54 -1 -150z m9549 125 c27 -54 70 -215 70 -265 0 -62 -106 -225 -147 -225
-21 0 -11 51 17 90 34 47 44 125 31 233 -16 138 -14 207 5 207 2 0 13 -18 24
-40z m-4470 -606 c62 -22 65 -25 74 -63 12 -55 -15 -264 -53 -412 -16 -63 -53
-170 -82 -239 l-53 -124 -12 54 c-58 250 -84 474 -84 711 l0 169 73 -36 c39
-21 101 -48 137 -60z m-442 -97 c4 -181 -11 -332 -54 -557 l-27 -145 -62 126
c-87 180 -135 376 -135 556 0 85 7 95 87 118 64 19 148 59 158 76 5 8 10 8 19
-1 7 -7 12 -69 14 -173z m-1159 -2897 c42 -250 60 -300 130 -363 46 -41 107
-61 160 -52 49 8 127 53 174 101 l37 37 0 -32 c0 -43 -35 -109 -116 -216 -78
-104 -146 -241 -170 -340 -12 -54 -15 -100 -11 -198 3 -92 1 -130 -7 -133 -6
-2 -39 7 -74 21 -85 34 -150 33 -245 -5 -136 -54 -196 -38 -342 90 -92 81
-163 134 -211 157 l-39 18 0 75 c0 41 10 158 22 260 12 102 29 286 38 410 9
124 18 236 21 249 4 20 14 7 63 -76 75 -126 135 -183 191 -183 80 0 155 100
265 355 l60 138 8 -44 c4 -24 25 -145 46 -269z m2716 80 c128 -250 179 -300
263 -256 43 23 87 74 150 179 l60 98 6 -38 c3 -21 8 -92 11 -158 9 -175 34
-445 52 -565 27 -183 28 -171 -6 -217 -17 -23 -90 -94 -163 -158 -132 -115
-227 -175 -276 -175 -14 0 -74 14 -135 31 -124 36 -183 36 -257 1 -63 -30 -70
-18 -70 122 -1 239 -24 309 -169 514 -80 114 -128 198 -118 209 3 3 40 -14 82
-37 134 -74 230 -66 298 23 72 95 103 195 117 382 12 160 27 235 50 235 4 0
52 -85 105 -190z m-3394 -1088 c24 -16 89 -70 144 -121 56 -51 124 -104 155
-119 49 -24 66 -27 155 -26 55 0 135 8 178 17 91 20 137 13 187 -30 59 -49 95
-158 127 -383 24 -174 25 -705 1 -828 -38 -195 -137 -314 -282 -341 -96 -18
-136 42 -207 303 -46 171 -85 240 -124 219 -25 -14 -84 -100 -150 -218 -78
-140 -98 -166 -148 -195 -57 -33 -145 -25 -188 16 -64 61 -105 183 -131 394
-20 160 -17 615 5 765 40 274 100 465 166 536 21 21 44 39 52 39 9 0 35 -13
60 -28z m4024 -29 c90 -124 149 -337 176 -642 15 -176 6 -616 -15 -728 -23
-118 -73 -250 -112 -292 -32 -36 -34 -36 -112 -36 -101 0 -119 12 -188 126
-161 263 -190 298 -237 280 -32 -12 -53 -69 -97 -253 -34 -146 -54 -188 -109
-225 -90 -61 -233 4 -300 136 -65 127 -85 300 -78 671 8 397 38 577 111 674
62 80 118 93 274 61 115 -24 211 -18 282 17 30 15 94 63 141 106 110 101 179
149 216 151 7 1 28 -20 48 -46z m-3657 -1461 c12 -37 28 -100 37 -140 26 -124
89 -223 168 -264 32 -16 52 -19 96 -15 31 3 66 8 78 12 l22 7 -25 -93 c-14
-52 -68 -240 -119 -419 -143 -498 -159 -604 -195 -1280 -45 -858 -61 -900
-327 -901 -134 0 -226 26 -338 96 -97 60 -237 125 -367 170 -126 44 -218 93
-238 128 -28 50 19 85 257 194 148 68 268 189 344 348 77 160 105 341 96 620
-10 284 -57 817 -98 1114 -27 191 -26 194 30 147 92 -77 174 -96 249 -57 47
24 127 108 180 186 51 76 102 183 102 214 0 42 25 7 48 -67z m3277 -58 c31
-61 77 -138 103 -170 117 -145 255 -163 381 -49 23 21 44 35 48 31 3 -3 1 -43
-6 -88 -81 -555 -119 -1054 -107 -1388 10 -306 39 -409 153 -550 91 -112 209
-203 370 -284 107 -53 163 -98 163 -131 0 -33 -55 -77 -131 -105 -214 -77
-261 -96 -329 -130 -41 -21 -110 -59 -153 -83 -115 -66 -213 -90 -351 -85
-127 4 -194 28 -226 80 -36 59 -52 212 -70 673 -35 886 -50 977 -271 1639 -49
148 -89 275 -89 282 0 17 5 17 68 3 73 -17 131 -5 181 38 55 46 83 104 126
260 55 198 55 197 70 182 7 -8 39 -64 70 -125z"/>
<path d="M18015 16055 c-5 -2 -22 -6 -37 -9 -34 -8 -84 -50 -105 -89 -18 -36
-20 -115 -3 -148 34 -65 91 -101 160 -101 99 0 172 73 172 172 0 88 -58 157
-147 172 -16 3 -34 4 -40 3z m86 -104 c23 -23 29 -38 29 -71 0 -33 -6 -48 -29
-71 -23 -23 -38 -29 -71 -29 -33 0 -48 6 -71 29 -23 23 -29 38 -29 71 0 33 6
48 29 71 23 23 38 29 71 29 33 0 48 -6 71 -29z"/>
<path d="M16045 15485 c-5 -2 -22 -6 -37 -9 -34 -8 -84 -50 -105 -89 -18 -36
-20 -115 -3 -148 34 -65 91 -101 160 -101 99 0 172 73 172 172 0 88 -58 157
-147 172 -16 3 -34 4 -40 3z m86 -104 c23 -23 29 -38 29 -71 0 -33 -6 -48 -29
-71 -23 -23 -38 -29 -71 -29 -33 0 -48 6 -71 29 -23 23 -29 38 -29 71 0 33 6
48 29 71 23 23 38 29 71 29 33 0 48 -6 71 -29z"/>
<path d="M18015 14255 c-5 -2 -22 -6 -37 -9 -34 -8 -84 -50 -105 -89 -18 -36
-20 -115 -3 -148 34 -65 91 -101 160 -101 99 0 172 73 172 172 0 88 -58 157
-147 172 -16 3 -34 4 -40 3z m86 -104 c23 -23 29 -38 29 -71 0 -33 -6 -48 -29
-71 -23 -23 -38 -29 -71 -29 -33 0 -48 6 -71 29 -23 23 -29 38 -29 71 0 33 6
48 29 71 23 23 38 29 71 29 33 0 48 -6 71 -29z"/>
<path d="M15225 13975 c-5 -2 -22 -6 -37 -9 -34 -8 -84 -50 -105 -89 -18 -36
-20 -115 -3 -148 34 -65 91 -101 160 -101 99 0 172 73 172 172 0 88 -58 157
-147 172 -16 3 -34 4 -40 3z m86 -104 c23 -23 29 -38 29 -71 0 -33 -6 -48 -29
-71 -23 -23 -38 -29 -71 -29 -33 0 -48 6 -71 29 -23 23 -29 38 -29 71 0 33 6
48 29 71 23 23 38 29 71 29 33 0 48 -6 71 -29z"/>
<path d="M18015 12245 c-5 -2 -22 -6 -37 -9 -34 -8 -84 -50 -105 -89 -18 -36
-20 -115 -3 -148 34 -65 91 -101 160 -101 99 0 172 73 172 172 0 88 -58 157
-147 172 -16 3 -34 4 -40 3z m86 -104 c23 -23 29 -38 29 -71 0 -33 -6 -48 -29
-71 -23 -23 -38 -29 -71 -29 -33 0 -48 6 -71 29 -23 23 -29 38 -29 71 0 33 6
48 29 71 23 23 38 29 71 29 33 0 48 -6 71 -29z"/>
<path d="M14035 12105 c-5 -2 -22 -6 -37 -9 -34 -8 -84 -50 -105 -89 -18 -36
-20 -115 -3 -148 34 -65 91 -101 160 -101 99 0 172 73 172 172 0 88 -58 157
-147 172 -16 3 -34 4 -40 3z m86 -104 c23 -23 29 -38 29 -71 0 -33 -6 -48 -29
-71 -23 -23 -38 -29 -71 -29 -33 0 -48 6 -71 29 -23 23 -29 38 -29 71 0 33 6
48 29 71 23 23 38 29 71 29 33 0 48 -6 71 -29z"/>
<path d="M17255 10335 c-5 -2 -22 -6 -37 -9 -34 -8 -84 -50 -105 -89 -18 -36
-20 -115 -3 -148 34 -65 91 -101 160 -101 99 0 172 73 172 172 0 88 -58 157
-147 172 -16 3 -34 4 -40 3z m86 -104 c64 -65 20 -171 -71 -171 -33 0 -48 6
-71 29 -64 65 -20 171 71 171 33 0 48 -6 71 -29z"/>
<path d="M16685 8355 c-5 -2 -22 -6 -37 -9 -34 -8 -84 -50 -105 -89 -18 -36
-20 -115 -3 -148 34 -65 91 -101 160 -101 99 0 172 73 172 172 0 88 -58 157
-147 172 -16 3 -34 4 -40 3z m86 -104 c64 -65 20 -171 -71 -171 -33 0 -48 6
-71 29 -64 65 -20 171 71 171 33 0 48 -6 71 -29z"/>
<path d="M16405 4225 c-5 -2 -22 -6 -37 -9 -34 -8 -84 -50 -105 -89 -18 -36
-20 -115 -3 -148 34 -65 91 -101 160 -101 99 0 172 73 172 172 0 88 -58 157
-147 172 -16 3 -34 4 -40 3z m86 -104 c64 -65 20 -171 -71 -171 -33 0 -48 6
-71 29 -64 65 -20 171 71 171 33 0 48 -6 71 -29z"/>
</g>
</svg>
