<?xml version="1.0" standalone="no"?>
<!DOCTYPE svg PUBLIC "-//W3C//DTD SVG 20010904//EN"
 "http://www.w3.org/TR/2001/REC-SVG-20010904/DTD/svg10.dtd">
<svg version="1.0" xmlns="http://www.w3.org/2000/svg"
 width="60.000000pt" height="39.000000pt" viewBox="0 0 60.000000 39.000000"
 preserveAspectRatio="xMidYMid meet">

<g transform="translate(0.000000,39.000000) scale(0.100000,-0.100000)"
fill="#000000" stroke="none">
<path d="M30 360 c0 -20 -5 -30 -15 -30 -12 0 -15 -14 -15 -70 0 -56 3 -70 15
-70 9 0 15 -9 15 -25 0 -24 2 -25 65 -25 l65 0 0 40 c0 22 5 40 10 40 6 0 10
-14 10 -30 0 -17 7 -47 15 -67 8 -19 15 -55 15 -79 0 -24 5 -44 10 -44 17 0
11 85 -9 131 -14 34 -17 60 -14 112 5 66 18 88 26 45 l4 -23 2 23 c0 12 5 22
10 22 5 0 12 -10 16 -22 l8 -23 4 23 c6 28 23 29 23 1 0 -11 4 -18 10 -14 5 3
7 12 3 20 -3 9 1 15 11 15 9 0 16 -8 16 -21 0 -11 5 -17 10 -14 6 4 8 10 5 15
-8 13 6 40 20 40 8 0 16 -26 23 -70 10 -70 10 -71 -24 -131 -33 -59 -46 -129
-24 -129 6 0 10 15 10 33 0 18 15 61 34 97 19 35 32 69 29 77 -3 8 3 13 17 13
20 0 22 -4 18 -40 l-4 -40 63 0 c61 0 63 1 63 25 0 16 6 25 15 25 12 0 15 14
15 70 0 56 -3 70 -15 70 -10 0 -15 10 -15 30 0 30 0 30 -59 30 l-60 0 -3 -42
c-2 -36 -7 -44 -25 -46 -17 -3 -24 3 -29 22 -4 19 -13 26 -30 26 -13 0 -24 -4
-24 -10 0 -6 -32 -10 -75 -10 -58 0 -77 -4 -81 -15 -12 -30 -24 -14 -24 30 l0
45 -65 0 -65 0 0 -30z m58 -97 c-3 -93 -5 -108 -20 -111 -16 -3 -18 7 -18 107
0 105 1 111 20 111 20 0 21 -5 18 -107z m52 -4 c0 -100 -2 -110 -17 -107 -16
3 -18 18 -21 111 -3 102 -2 107 18 107 19 0 20 -6 20 -111z m360 0 c0 -100 -2
-110 -17 -107 -16 3 -18 18 -21 111 -3 102 -2 107 18 107 19 0 20 -6 20 -111z
m50 1 c0 -91 -3 -110 -15 -110 -12 0 -15 19 -15 110 0 91 3 110 15 110 12 0
15 -19 15 -110z m-523 -27 c-2 -16 -4 -3 -4 27 0 30 2 43 4 28 2 -16 2 -40 0
-55z m557 32 c-2 -64 -14 -70 -14 -7 0 29 3 52 8 52 4 0 6 -20 6 -45z m-404
-5 c0 -11 -4 -20 -10 -20 -5 0 -10 9 -10 20 0 11 5 20 10 20 6 0 10 -9 10 -20z
m270 5 c0 -21 -30 -31 -41 -14 -14 23 -11 29 16 29 16 0 25 -6 25 -15z"/>
</g>
</svg>
